<svg width="21" height="21" fill="none" xmlns="http://www.w3.org/2000/svg"><path d="M16.333 16.5a2.167 2.167 0 110 4.334 2.167 2.167 0 010-4.334zm0 1.083a1.083 1.083 0 100 2.167 1.083 1.083 0 000-2.167zM6.583 16.5a2.167 2.167 0 110 4.334 2.167 2.167 0 010-4.334zm0 1.083a1.084 1.084 0 100 2.168 1.084 1.084 0 000-2.168zM18.5 3.5H3.629L6.388 10h8.862a1.076 1.076 0 00.866-.435l3.25-4.334h.001A1.083 1.083 0 0018.5 3.5zm-3.25 7.583H6.438l-.83 1.69-.108.477a1.083 1.083 0 001.083 1.083H18.5v1.084H6.583a2.167 2.167 0 01-1.896-3.218l.78-1.597-3.934-9.269H.083V.25H2.25l.92 2.167H18.5a2.167 2.167 0 011.682 3.531l-3.157 4.21a2.165 2.165 0 01-1.775.925z" fill="#fff"/></svg>