<svg width="27" height="29" fill="none" xmlns="http://www.w3.org/2000/svg"><g filter="url(#filter0_d)"><path d="M18.667 16.5a1.833 1.833 0 110 3.667 1.833 1.833 0 010-3.667zm0 .917a.916.916 0 100 1.832.916.916 0 000-1.832zm-8.25-.917a1.833 1.833 0 110 3.667 1.833 1.833 0 010-3.667zm0 .917a.916.916 0 100 1.832.916.916 0 000-1.832zM20.5 5.5H7.917l2.335 5.5h7.498a.911.911 0 00.733-.368l2.75-3.667h.001A.917.917 0 0020.5 5.5zm-2.75 6.417h-7.456l-.702 1.43-.092.403a.917.917 0 00.917.917H20.5v.916H10.417a1.833 1.833 0 01-1.604-2.722l.66-1.351-3.33-7.843H4.917V2.75H6.75l.778 1.833H20.5a1.833 1.833 0 011.424 2.989l-2.672 3.562a1.83 1.83 0 01-1.502.783z" fill="#131F8D"/></g><defs><filter id="filter0_d" x="0" y="0" width="30" height="30" filterUnits="userSpaceOnUse" color-interpolation-filters="sRGB"><feFlood flood-opacity="0" result="BackgroundImageFix"/><feColorMatrix in="SourceAlpha" values="0 0 0 0 0 0 0 0 0 0 0 0 0 0 0 0 0 0 127 0"/><feOffset dy="4"/><feGaussianBlur stdDeviation="2"/><feColorMatrix values="0 0 0 0 0 0 0 0 0 0 0 0 0 0 0 0 0 0 0.25 0"/><feBlend in2="BackgroundImageFix" result="effect1_dropShadow"/><feBlend in="SourceGraphic" in2="effect1_dropShadow" result="shape"/></filter></defs></svg>