<svg width="13" height="14" fill="none" xmlns="http://www.w3.org/2000/svg"><g clip-path="url(#clip0)" fill="#fff"><path fill-rule="evenodd" clip-rule="evenodd" d="M2.844.618A.4.4 0 013.13.74a.423.423 0 01.119.295v.418c0 .11-.043.216-.119.295a.4.4 0 01-.575 0 .423.423 0 01-.119-.295v-.418c0-.11.043-.217.12-.295a.4.4 0 01.287-.122zm7.312 0a.4.4 0 01.287.122.423.423 0 01.12.295v.418c0 .11-.043.216-.12.295a.4.4 0 01-.574 0 .423.423 0 01-.119-.295v-.418c0-.11.043-.217.119-.295a.4.4 0 01.287-.122z"/><path d="M1.625 1.453c-.431 0-.844.176-1.149.489A1.693 1.693 0 000 3.122v.835h13v-.835a1.69 1.69 0 00-.476-1.18 1.603 1.603 0 00-1.149-.49h-9.75zM13 4.792H0v7.513c0 .443.171.868.476 1.18.305.314.718.49 1.149.49h9.75c.431 0 .844-.176 1.149-.49.305-.312.476-.737.476-1.18V4.792z"/></g><defs><clipPath id="clip0"><path fill="#fff" transform="translate(0 .618)" d="M0 0h13v13.357H0z"/></clipPath></defs></svg>