<svg width="63" height="159" fill="none" xmlns="http://www.w3.org/2000/svg"><g filter="url(#filter0_d)" fill="#F8F8F8"><path d="M11 48.167c1.562 16.24 37.922 28.013 46.926 49.798.05.12.074.246.074.375V147s-5.744-14.039-24.022-26.112c-17.042-11.257-22.28-22.758-22.91-24.262a.891.891 0 01-.068-.35V48.168zm19.452-23.129c.904 9.662 21.899 16.67 27.163 29.61a.97.97 0 01.07.366V83.94s-3.328-8.367-13.919-15.563c-9.668-6.568-12.78-13.276-13.248-14.395a.874.874 0 01-.066-.342V25.038zM38.233 4c.644 6.192 15.55 10.689 19.367 18.958a.95.95 0 01.086.4v18.508s-2.378-5.378-9.943-10.004c-6.704-4.1-8.995-8.284-9.429-9.182a.85.85 0 01-.08-.375V4z"/></g><defs><filter id="filter0_d" x="0" y="0" width="63" height="159" filterUnits="userSpaceOnUse" color-interpolation-filters="sRGB"><feFlood flood-opacity="0" result="BackgroundImageFix"/><feColorMatrix in="SourceAlpha" values="0 0 0 0 0 0 0 0 0 0 0 0 0 0 0 0 0 0 127 0"/><feOffset dx="-3" dy="4"/><feGaussianBlur stdDeviation="4"/><feColorMatrix values="0 0 0 0 0 0 0 0 0 0 0 0 0 0 0 0 0 0 0.05 0"/><feBlend in2="BackgroundImageFix" result="effect1_dropShadow"/><feBlend in="SourceGraphic" in2="effect1_dropShadow" result="shape"/></filter></defs></svg>