<svg width="59" height="37" fill="none" xmlns="http://www.w3.org/2000/svg"><g clip-path="url(#clip0)" fill="#C4C4C4"><path d="M11.68 21.502h2.762v-1.167c-.053 0-.036.177-.036-1.717H0v5.079h8.936l2.744-2.195zm11.232 6.216l.001-4.159H12.402l-2.744 2.195H0v7.68h1.236a5.288 5.288 0 015.28-5.213 5.289 5.289 0 014.836 3.156h.942c.812-4.99 6.894-7.108 10.618-3.66z"/><path d="M35.058 32.313l-.008-2.058-5.553.02V6.066H27.44v8.985h-4.527V1.745H16.5v19.756c9.686 0 1.078-.002 10.94-.002V32.34l7.618-.028zM22.912 19.44c0-2.597-.016-2.333.036-2.333h4.491v2.333h-4.527zm-4.014 8.656c-3.524-.262-5.888 3.691-3.947 6.638a4.31 4.31 0 006.593.825c2.76-2.581 1.081-7.223-2.646-7.463zM9.03 31.485c-1.34-1.671-3.874-1.575-5.096.091-1.652 2.156-.006 5.152 2.583 5.152 1.815 0 3.33-1.544 3.22-3.36a3.213 3.213 0 00-.708-1.883zm5.376-21.613L9.192 5.58v10.98h5.214V9.872zM7.134 5.035H0V16.56h7.134V5.035z"/></g><rect x="30.783" width="28.217" height="28.217" rx="5" fill="#C4C4C4"/><defs><clipPath id="clip0"><path fill="#fff" transform="translate(0 1.71)" d="M0 0h35.058v35.058H0z"/></clipPath></defs></svg>