<svg width="25" height="25" fill="none" xmlns="http://www.w3.org/2000/svg"><path d="M5.208 5.208H18.75a3.125 3.125 0 013.125 3.125v9.375a3.125 3.125 0 01-3.125 3.125H5.208a3.125 3.125 0 01-3.125-3.125V8.333a3.125 3.125 0 013.125-3.125zm0 1.042c-.508 0-.975.182-1.336.485L11.979 12l8.108-5.265a2.075 2.075 0 00-1.337-.485H5.208zm6.771 6.992L3.265 7.583c-.093.24-.14.494-.14.75v9.375a2.083 2.083 0 002.083 2.084H18.75a2.083 2.083 0 002.083-2.084V8.333c0-.264-.049-.517-.14-.75l-8.714 5.658z" fill="#fff"/></svg>