<svg width="31" height="32" fill="none" xmlns="http://www.w3.org/2000/svg"><g filter="url(#filter0_d)"><path d="M7.833 5.833H23a3.5 3.5 0 013.5 3.5v10.5a3.5 3.5 0 01-3.5 3.5H7.833a3.5 3.5 0 01-3.5-3.5v-10.5a3.5 3.5 0 013.5-3.5zm0 1.167c-.569 0-1.092.204-1.497.544l9.08 5.896 9.08-5.896A2.324 2.324 0 0023 7H7.833zm7.584 7.83l-9.76-6.337a2.327 2.327 0 00-.157.84v10.5a2.333 2.333 0 002.333 2.334H23a2.333 2.333 0 002.333-2.334v-10.5c0-.296-.054-.58-.156-.84l-9.76 6.337z" fill="#131F8D"/></g><defs><filter id="filter0_d" x="-2" y="0" width="36" height="36" filterUnits="userSpaceOnUse" color-interpolation-filters="sRGB"><feFlood flood-opacity="0" result="BackgroundImageFix"/><feColorMatrix in="SourceAlpha" values="0 0 0 0 0 0 0 0 0 0 0 0 0 0 0 0 0 0 127 0"/><feOffset dy="4"/><feGaussianBlur stdDeviation="2"/><feColorMatrix values="0 0 0 0 0 0 0 0 0 0 0 0 0 0 0 0 0 0 0.25 0"/><feBlend in2="BackgroundImageFix" result="effect1_dropShadow"/><feBlend in="SourceGraphic" in2="effect1_dropShadow" result="shape"/></filter></defs></svg>