<svg width="43" height="43" fill="none" xmlns="http://www.w3.org/2000/svg"><g clip-path="url(#clip0)"><path d="M42.43 20.73l-4.825-3.663a1.44 1.44 0 00-2.311 1.148v2.24h-1.428V18.19a1.44 1.44 0 00-1.44-1.44h-2.868V11.4a1.44 1.44 0 00-1.44-1.441h-4.481v-1.53h1.206a1.44 1.44 0 000-2.88h-9.307a1.44 1.44 0 000 2.88h1.208v1.53h-5.57a1.44 1.44 0 00-1.44 1.44v2.813H6.92a1.44 1.44 0 00-1.44 1.44v3.296h-2.6V14.86a1.44 1.44 0 00-2.881 0v15.068a1.44 1.44 0 102.881 0v-4.087h2.6v3.378c0 .796.645 1.44 1.44 1.44h3.623l5.083 6.26a1.44 1.44 0 001.118.532h15.682a1.44 1.44 0 001.44-1.44v-1.904h1.428v1.904a1.441 1.441 0 002.378 1.093l4.826-4.136A1.44 1.44 0 0043 31.874v-9.997c0-.45-.211-.875-.57-1.147z" fill="#C4C4C4"/></g><defs><clipPath id="clip0"><path fill="#fff" d="M0 0h43v43H0z"/></clipPath></defs></svg>