<svg width="28" height="28" fill="none" xmlns="http://www.w3.org/2000/svg"><circle cx="13.775" cy="13.853" r="13.775" fill="url(#paint0_linear)"/><path d="M13 12.256a1.826 1.826 0 00-1.822 1.822c0 1.004.818 1.823 1.822 1.823a1.826 1.826 0 001.822-1.823A1.826 1.826 0 0013 12.256zm5.466 1.822c0-.755.007-1.502-.036-2.256-.042-.875-.241-1.651-.881-2.291-.642-.641-1.417-.84-2.292-.882-.755-.042-1.502-.035-2.256-.035-.754 0-1.502-.007-2.255.035-.875.043-1.652.242-2.292.882-.641.641-.84 1.416-.882 2.291-.042.755-.035 1.503-.035 2.256 0 .754-.007 1.503.035 2.256.043.875.242 1.652.882 2.291.641.642 1.417.84 2.291.882.755.043 1.503.036 2.256.036.755 0 1.503.007 2.256-.036.875-.042 1.652-.242 2.292-.882.64-.64.84-1.416.881-2.29.044-.754.036-1.502.036-2.257zM13 16.882a2.8 2.8 0 01-2.804-2.804A2.8 2.8 0 0113 11.274a2.8 2.8 0 012.804 2.804A2.8 2.8 0 0113 16.882zm2.919-5.068a.654.654 0 11-.002-1.308.654.654 0 01.002 1.308z" fill="#131F8D"/><defs><linearGradient id="paint0_linear" x1="5.854" y1="24.529" x2="24.106" y2="5.588" gradientUnits="userSpaceOnUse"><stop stop-color="#EBECF0"/></linearGradient></defs></svg>