<svg width="137" height="46" fill="none" xmlns="http://www.w3.org/2000/svg"><path d="M47.75 7.463h4.845c1.987 0 3.602.493 4.844 1.48 1.242.986 1.864 2.33 1.864 4.03 0 1.702-.622 3.046-1.864 4.032-1.242.987-2.857 1.48-4.844 1.48H49.46v3.989h-1.71V7.463zm1.71 9.457h3.244c1.432 0 2.616-.33 3.551-.987.95-.657 1.425-1.644 1.425-2.96 0-1.3-.475-2.28-1.425-2.937-.935-.672-2.119-1.008-3.55-1.008H49.46v7.892zm15.771-2.81h7.52v1.566h-7.52v5.232h8.001v1.566h-9.71V7.463h9.71v1.565h-8v5.082zm21.929 8.364H77.6V7.463h1.71v13.445h7.848v1.566zm5.868-8.364h7.518v1.566h-7.519v5.232h8.002v1.566h-9.711V7.463h9.711v1.565h-8.001v5.082zm23.769 8.364h-.943l-8.966-11.73v11.73h-1.709V7.463h.964l8.944 11.73V7.463h1.71v15.01zm12.239-15.161c2.309 0 4.238.836 5.787 2.509l-1.118 1.007c-1.257-1.3-2.813-1.951-4.669-1.951-1.71 0-3.157.586-4.34 1.758-1.17 1.158-1.754 2.602-1.754 4.332s.584 3.181 1.754 4.354c1.183 1.158 2.63 1.736 4.34 1.736 1.593 0 2.952-.507 4.077-1.522v-3.624h-4.209v-1.308h5.919v5.554c-1.534 1.644-3.463 2.466-5.787 2.466-2.163 0-4.004-.743-5.524-2.23-1.52-1.501-2.28-3.31-2.28-5.426s.76-3.917 2.28-5.404c1.52-1.5 3.361-2.252 5.524-2.252zm-27.512 18.774h3.382c1.414 0 2.518.37 3.311 1.108.793.738 1.19 1.659 1.19 2.762s-.397 2.023-1.19 2.762c-.793.738-1.897 1.108-3.311 1.108h-.946v2.075h-2.436v-9.815zm2.436 5.482h1.133c.563 0 1.036-.135 1.419-.406.391-.271.587-.673.587-1.206 0-.514-.196-.912-.587-1.192-.392-.29-.865-.435-1.419-.435h-1.133v3.24zm10.494-5.482h3.526c1.395 0 2.47.364 3.225 1.093.755.73 1.132 1.632 1.132 2.707 0 .682-.172 1.29-.516 1.822-.334.524-.817.93-1.447 1.22.315.243.788.832 1.419 1.767l.788 1.206h-2.738l-.559-.841c-.296-.44-.501-.73-.616-.87a1.223 1.223 0 00-.43-.35c-.181-.094-.43-.145-.745-.154h-.602v2.215h-2.437v-9.815zm2.437 2.243v3.099h1.319c.554 0 .993-.126 1.318-.379.335-.261.502-.65.502-1.163 0-.496-.172-.879-.516-1.15-.335-.271-.769-.407-1.304-.407h-1.319zm11.38-.87c.994-.98 2.198-1.471 3.612-1.471 1.414 0 2.618.49 3.612 1.472 1.003.972 1.505 2.15 1.505 3.533 0 1.384-.502 2.566-1.505 3.548-.994.972-2.198 1.458-3.612 1.458-1.414 0-2.618-.486-3.612-1.458-.994-.982-1.491-2.164-1.491-3.548 0-1.383.497-2.56 1.491-3.533zm5.518 1.543c-.506-.514-1.141-.77-1.906-.77-.764 0-1.4.256-1.906.77-.507.505-.76 1.169-.76 1.991 0 .832.253 1.5.76 2.005.506.496 1.142.743 1.906.743.774 0 1.414-.247 1.921-.743.506-.504.759-1.173.759-2.005 0-.822-.258-1.486-.774-1.99z" fill="#fff"/><g filter="url(#filter0_d)"><path d="M18.253 4.616c3.944 0 7.726 1.483 10.515 4.124 2.789 2.64 4.355 6.222 4.355 9.956 0 3.734-1.566 7.315-4.355 9.956-2.789 2.64-6.571 4.124-10.515 4.124V4.616z" fill="#fff"/><rect x="16.371" y="2" width="6.917" height="33.633" rx="1" fill="#fff"/><rect width="6.398" height="14.566" rx="1" transform="matrix(.68139 .73193 -.76727 .64133 29.669 4.147)" fill="#fff"/><rect x="36.353" y="14.27" width="6.316" height="19.058" rx="1" transform="rotate(90 36.353 14.27)" fill="#fff"/><rect width="6.354" height="15.448" rx="1" transform="matrix(-.64687 .7626 -.79464 -.60708 35.062 27.205)" fill="#fff"/><path d="M16.931 3.393c2.092 0 4.164.339 6.097.999 1.933.66 3.69 1.626 5.169 2.844 1.479 1.22 2.652 2.666 3.453 4.258a11.15 11.15 0 011.213 5.022c0 1.724-.412 3.43-1.213 5.023-.8 1.592-1.974 3.039-3.453 4.257-1.48 1.219-3.236 2.186-5.169 2.845a18.93 18.93 0 01-6.097 1V3.392z" fill="#fff"/><path d="M28.61 13.211c-.375 2.919-8.98 5.047-11.345 8.907a.898.898 0 00-.126.472v8.666s1.402-2.563 5.863-4.767c3.661-1.81 5.09-3.654 5.485-4.256a.801.801 0 00.123-.444v-8.578z" fill="#121C78"/><path d="M6.812 10.501c.312 2.56 7.455 4.429 9.442 7.808a.885.885 0 01.117.453v7.597s-1.169-2.252-4.886-4.19c-3.016-1.572-4.215-3.173-4.56-3.721a.794.794 0 01-.113-.427v-7.52zm1.873 11.284c.25 2.122 5.953 3.672 7.575 6.463a.873.873 0 01.11.441v6.285s-.939-1.873-3.927-3.484c-2.379-1.283-3.351-2.589-3.65-3.068a.775.775 0 01-.108-.414v-6.223z" fill="#fff"/><path d="M24.786 7.936c-.248 1.928-5.879 3.338-7.517 5.866a.86.86 0 00-.13.471v5.693s.935-1.709 3.909-3.178c2.318-1.146 3.294-2.312 3.611-2.77a.77.77 0 00.127-.443V7.936z" fill="#121C78"/><path d="M9.998 6.126c.206 1.659 4.864 2.874 6.25 5.042a.846.846 0 01.123.458v4.89s-.78-1.476-3.257-2.745c-1.898-.972-2.716-1.96-2.995-2.37a.754.754 0 01-.12-.43V6.126zm3.186-1.64c.1.757 2.264 1.319 3.042 2.276a.735.735 0 01.145.47v2.176s-.39-.7-1.629-1.3c-.807-.392-1.224-.79-1.416-1.02a.676.676 0 01-.142-.44V4.485z" fill="#fff"/><path d="M19.688 7.276c-.079.67-1.796 1.168-2.425 2.013a.717.717 0 00-.124.434v1.928s.312-.621 1.303-1.156c.636-.343.969-.69 1.126-.896a.66.66 0 00.12-.407V7.276z" fill="#121C78"/></g><defs><filter id="filter0_d" x=".812" y="0" width="41.541" height="45.633" filterUnits="userSpaceOnUse" color-interpolation-filters="sRGB"><feFlood flood-opacity="0" result="BackgroundImageFix"/><feColorMatrix in="SourceAlpha" values="0 0 0 0 0 0 0 0 0 0 0 0 0 0 0 0 0 0 127 0"/><feOffset dy="4"/><feGaussianBlur stdDeviation="3"/><feColorMatrix values="0 0 0 0 0 0 0 0 0 0 0 0 0 0 0 0 0 0 0.11 0"/><feBlend in2="BackgroundImageFix" result="effect1_dropShadow"/><feBlend in="SourceGraphic" in2="effect1_dropShadow" result="shape"/></filter></defs></svg>