<svg width="25" height="25" fill="none" xmlns="http://www.w3.org/2000/svg"><path d="M1.134 10.925h2.097c.124.447.303.877.533 1.28L2.279 13.69a.378.378 0 000 .535l1.604 1.604a.379.379 0 00.535 0l1.484-1.484c.403.23.833.408 1.28.532v2.097c0 .209.17.378.379.378h2.268c.208 0 .378-.17.378-.378v-2.097a5.615 5.615 0 001.28-.532l1.485 1.484a.39.39 0 00.534 0l1.604-1.604a.378.378 0 000-.535l-1.485-1.483a5.62 5.62 0 00.533-1.281h2.097c.209 0 .378-.17.378-.378V8.279a.378.378 0 00-.378-.378h-2.097a5.62 5.62 0 00-.533-1.281l1.485-1.484a.378.378 0 000-.535l-1.604-1.604a.378.378 0 00-.534 0l-1.485 1.485a5.635 5.635 0 00-1.28-.533V1.852a.378.378 0 00-.378-.378H7.56a.378.378 0 00-.379.378V3.95a5.634 5.634 0 00-1.28.533L4.418 2.997a.39.39 0 00-.535 0L2.279 4.601a.378.378 0 000 .535L3.764 6.62c-.23.403-.409.833-.533 1.28H1.134a.378.378 0 00-.378.379v2.268c0 .208.17.378.378.378zm.378-2.268h2.015a.378.378 0 00.37-.298 4.864 4.864 0 01.662-1.593.378.378 0 00-.051-.47L3.08 4.868l1.07-1.07 1.426 1.427a.378.378 0 00.471.05 4.871 4.871 0 011.593-.661.378.378 0 00.298-.37V2.23H9.45v2.015c0 .178.123.331.297.37a4.872 4.872 0 011.593.662c.15.096.346.075.472-.051l1.426-1.427 1.069 1.07-1.426 1.426a.378.378 0 00-.051.471c.314.488.537 1.027.661 1.594a.378.378 0 00.37.297h2.015v1.512h-2.015a.378.378 0 00-.37.297 4.86 4.86 0 01-.661 1.593.378.378 0 00.05.471l1.427 1.427-1.07 1.07-1.425-1.427a.378.378 0 00-.472-.051 4.863 4.863 0 01-1.593.662.378.378 0 00-.297.37v2.014H7.939V14.58a.378.378 0 00-.298-.37 4.862 4.862 0 01-1.593-.661.378.378 0 00-.471.05L4.15 15.027l-1.069-1.07 1.427-1.425a.378.378 0 00.05-.472 4.865 4.865 0 01-.662-1.593.378.378 0 00-.369-.297H1.512V8.657z" fill="#BDBDBD"/><path d="M8.695 12.437a3.024 3.024 0 100-6.048 3.024 3.024 0 000 6.048zm0-5.292a2.268 2.268 0 110 4.536 2.268 2.268 0 010-4.536z" fill="#BDBDBD"/><path d="M8.695 13.57a4.158 4.158 0 100-8.316 4.158 4.158 0 000 8.317zm0-7.56a3.402 3.402 0 110 6.805 3.402 3.402 0 010-6.805zm13.608 12.853V15.84a.378.378 0 00-.378-.378h-.756v-3.024a.378.378 0 00-.378-.378H17.39a.378.378 0 00-.378.378v3.024h-1.89a.378.378 0 00-.378.378v3.024H2.646a1.892 1.892 0 00-1.89 1.89v.757a1.892 1.892 0 001.89 1.89h19.657a1.892 1.892 0 001.89-1.89v-.756a1.892 1.892 0 00-1.89-1.89zm-.756 0h-2.646v-2.646h2.646v2.646zm-3.78-6.048h2.646v2.646h-2.646v-2.646zM15.5 16.217h2.646v2.646H15.5v-2.646zm7.938 5.293c0 .626-.507 1.134-1.134 1.134H2.646a1.134 1.134 0 01-1.134-1.134v-.756c0-.627.508-1.134 1.134-1.134h19.657c.627 0 1.134.507 1.134 1.134v.756z" fill="#BDBDBD"/><path d="M12.475 19.998a1.134 1.134 0 100 2.268 1.134 1.134 0 000-2.268zm0 1.512a.378.378 0 110-.756.378.378 0 010 .756zm-3.78-1.512a1.134 1.134 0 100 2.268 1.134 1.134 0 000-2.268zm0 1.512a.378.378 0 110-.756.378.378 0 010 .756zm7.56-1.512a1.134 1.134 0 100 2.268 1.134 1.134 0 000-2.268zm0 1.512a.378.378 0 110-.757.378.378 0 010 .757zM4.914 19.998a1.134 1.134 0 100 2.268 1.134 1.134 0 000-2.268zm0 1.512a.378.378 0 110-.756.378.378 0 010 .756zm15.121-1.512a1.134 1.134 0 100 2.268 1.134 1.134 0 000-2.268zm0 1.512a.378.378 0 110-.756.378.378 0 010 .756z" fill="#BDBDBD"/></svg>