<svg width="23" height="23" fill="none" xmlns="http://www.w3.org/2000/svg"><path d="M18.688 21.083a1.44 1.44 0 001.437-1.437v-3.354a1.44 1.44 0 00-1.438-1.438 10.44 10.44 0 01-3.277-.524 1.459 1.459 0 00-1.46.348l-1.38 1.38a14.045 14.045 0 01-5.64-5.638L8.3 9.043c.394-.366.536-.923.367-1.459a10.419 10.419 0 01-.521-3.271 1.44 1.44 0 00-1.438-1.438H3.354a1.44 1.44 0 00-1.437 1.438c0 9.247 7.523 16.77 16.77 16.77zM3.354 3.833h3.354a.48.48 0 01.48.48c0 1.223.191 2.425.568 3.565a.453.453 0 01-.122.476L5.76 10.238c1.568 3.093 3.886 5.41 6.994 6.993l1.867-1.869a.494.494 0 01.495-.12c1.146.379 2.348.57 3.572.57a.48.48 0 01.479.48v3.354a.48.48 0 01-.48.479c-8.718 0-15.812-7.094-15.812-15.813a.48.48 0 01.48-.479z" fill="#131F8D"/></svg>