<svg width="25" height="25" fill="none" xmlns="http://www.w3.org/2000/svg"><path d="M20.313 22.917c.86 0 1.562-.701 1.562-1.563v-3.646c0-.861-.701-1.562-1.563-1.562a11.35 11.35 0 01-3.562-.57 1.587 1.587 0 00-1.586.378l-1.5 1.5a15.265 15.265 0 01-6.13-6.128L9.02 9.829c.429-.398.583-1.003.4-1.585a11.325 11.325 0 01-.567-3.556c0-.862-.7-1.563-1.562-1.563H3.646c-.862 0-1.563.701-1.563 1.563 0 10.052 8.177 18.229 18.23 18.229zM3.645 4.167h3.646a.52.52 0 01.52.52c0 1.33.209 2.637.618 3.875a.493.493 0 01-.132.518L6.26 11.128c1.706 3.363 4.224 5.881 7.603 7.601l2.03-2.031a.538.538 0 01.537-.131c1.246.412 2.552.62 3.883.62.286 0 .52.235.52.521v3.646a.522.522 0 01-.52.521c-9.478 0-17.188-7.71-17.188-17.188a.52.52 0 01.52-.52z" fill="#fff"/></svg>