<svg width="13" height="14" fill="none" xmlns="http://www.w3.org/2000/svg"><path d="M10.593 4.345c0-.663-.22-1.2-.66-1.61-.44-.412-1.02-.617-1.737-.617h-3.25v4.454h3.25c.718 0 1.297-.205 1.737-.616.44-.411.66-.948.66-1.61zm2.407 0c0 1.28-.428 2.324-1.285 3.132C10.86 8.286 9.753 8.69 8.4 8.69H4.946v1.174h5.129a.32.32 0 01.234.09c.06.059.091.135.091.228v1.272c0 .093-.03.17-.091.23a.32.32 0 01-.234.089H4.946v1.909a.3.3 0 01-.096.229.325.325 0 01-.23.089H2.925a.32.32 0 01-.234-.09.306.306 0 01-.091-.228v-1.91H.325a.32.32 0 01-.234-.089.306.306 0 01-.091-.229v-1.272c0-.093.03-.17.091-.229a.32.32 0 01.234-.09H2.6V8.69H.325a.32.32 0 01-.234-.09A.306.306 0 010 8.373V6.891a.31.31 0 01.091-.224.311.311 0 01.234-.095H2.6V.318c0-.093.03-.169.091-.229A.32.32 0 012.925 0h5.474c1.354 0 2.46.404 3.316 1.213C12.572 2.022 13 3.066 13 4.345z" fill="#333"/></svg>