<svg width="64" height="59" fill="none" xmlns="http://www.w3.org/2000/svg"><path d="M59 29.47c0-.683-.333-1.283-.84-1.66l.011-.018-7.133-4.15 4.106-7.167-.014-.008a2.07 2.07 0 00-.097-1.857 2.049 2.049 0 00-1.55-1.013v-.02h-8.238V5.299h-.017a2.067 2.067 0 00-1.005-1.559 2.026 2.026 0 00-1.845-.096l-.01-.018-7.254 4.22L31.097.835l-.014.008A2.046 2.046 0 0029.438 0c-.677 0-1.273.335-1.645.846l-.019-.011-4.083 7.127-7.031-4.09-.009.014a2.026 2.026 0 00-2.53.757c-.175.271-.284.58-.318.902h-.02v8.23h-8.12v.015a2.031 2.031 0 00-1.547 1.014 2.068 2.068 0 00-.096 1.858l-.018.01 4.014 7.006L.829 27.86l.008.015A2.052 2.052 0 000 29.532c0 .682.333 1.282.84 1.658l-.011.018 7.133 4.15-4.106 7.168.014.007a2.07 2.07 0 00.097 1.857 2.049 2.049 0 001.55 1.013v.02h8.237v8.278h.017c.07.63.42 1.218 1.005 1.559a2.028 2.028 0 001.846.096l.01.018 7.253-4.22 4.017 7.011.015-.008A2.045 2.045 0 0029.56 59c.677 0 1.273-.335 1.646-.845l.017.01 4.083-7.127 7.032 4.09.009-.014a2.026 2.026 0 002.53-.757 2.05 2.05 0 00.318-.902h.02v-8.229h8.12v-.016a2.03 2.03 0 001.548-1.013 2.067 2.067 0 00.096-1.858l.018-.01-4.014-7.006 7.187-4.182-.008-.014A2.055 2.055 0 0059 29.469z" fill="#DD2025"/><path d="M15 40.968l.191 1.122-1.8 1.04-1.126-8.242.972-.56 6.536 5.117-1.8 1.04-.877-.727-2.095 1.21zm-.585-3.434l.262 1.576.972-.56-1.234-1.016zm10.583-1.105l-2.63-1.365c-.203-.103-.37-.156-.497-.158-.133-.008-.281.035-.446.13l-.362.21 1.496 2.59-1.62.936-3.85-6.669 1.62-.935 1.452 2.515.352-.203c.165-.096.28-.2.341-.312.059-.118.095-.291.107-.518l.13-2.857 1.819-1.05-.15 3.503c-.05.427-.146.795-.288 1.106.312-.002.694.116 1.145.355l3.21 1.666-1.83 1.056zm9.88-4.067l-1.619.935-.71-1.229-4.467 2.58-3.85-6.669 1.62-.934 2.964 5.134 2.02-1.166-2.965-5.135 1.62-.934 2.964 5.134.829-.478 1.595 2.762zm5.888-5.038l-1.619.935-2.117-3.667-.646 5.263-.971.56-3.85-6.668 1.62-.935L35.3 26.48l.645-5.263.971-.56 3.85 6.668zm6.66-3.845l-1.619.935-.869-1.505-.4.231c-.288.175-.464.348-.526.52-.062.17-.107.54-.135 1.107l-.032.78-1.82 1.05.051-1.121c.04-.853.124-1.435.25-1.745a2.619 2.619 0 01-1.45-.268 2.676 2.676 0 01-1.048-1.046c-.422-.73-.525-1.488-.31-2.273.216-.785.788-1.445 1.715-1.98l2.344-1.353 3.85 6.668zm-4.589-4.209l-.876.506c-.356.205-.595.466-.717.782-.116.313-.077.637.117.974.202.35.462.55.78.604.322.043.667-.042 1.035-.255l.877-.506-1.216-2.105z" fill="#fff"/></svg>