<svg width="15" height="15" fill="none" xmlns="http://www.w3.org/2000/svg"><g clip-path="url(#clip0)" fill-rule="evenodd" clip-rule="evenodd" fill="#131F8D"><path d="M8.467 4.64a.313.313 0 01.442 0l2.21 2.21a.313.313 0 010 .442l-2.21 2.21a.312.312 0 11-.442-.442l1.988-1.989-1.988-1.989a.313.313 0 010-.442z"/><path d="M11.21 7.071a.314.314 0 01-.313.313H2.944a.313.313 0 010-.626h7.955a.312.312 0 01.312.313z"/></g><defs><clipPath id="clip0"><path fill="#fff" transform="rotate(45 3.681 8.887)" d="M0 0h10v10H0z"/></clipPath></defs></svg>