<svg width="15" height="15" fill="none" xmlns="http://www.w3.org/2000/svg"><g clip-path="url(#clip0)" fill-rule="evenodd" clip-rule="evenodd" fill="#131F8D"><path d="M6.257 10.36a.312.312 0 01-.442 0l-2.21-2.21a.313.313 0 010-.442l2.21-2.21a.312.312 0 11.442.443L4.268 7.929l1.989 1.99a.312.312 0 010 .441z"/><path d="M3.514 7.929a.312.312 0 01.312-.313h7.955a.313.313 0 110 .626H3.826a.312.312 0 01-.312-.313z"/></g><defs><clipPath id="clip0"><path fill="#fff" transform="rotate(-135 6.788 5.975)" d="M0 0h10v10H0z"/></clipPath></defs></svg>