<svg width="10" height="14" fill="none" xmlns="http://www.w3.org/2000/svg"><path d="M9.133 4.064c-.164 1.59-3.891 2.754-4.984 4.837a.849.849 0 00-.09.396V14s.62-1.411 2.593-2.625c1.529-.94 2.178-1.897 2.393-2.281a.753.753 0 00.088-.371V4.064z" fill="#131F8D"/><path d="M0 2.032c.13 1.255 3.067 2.177 3.966 3.81.067.12.093.258.093.396v3.698s-.496-1.123-2.075-2.088C.807 7.128.282 6.395.091 6.069A.73.73 0 010 5.697V2.032z" fill="#131F8D"/><path d="M7.667.339C7.552 1.464 4.96 2.29 4.15 3.75a.804.804 0 00-.091.393v3.309s.441-1.01 1.844-1.88c1.03-.637 1.498-1.285 1.674-1.585a.718.718 0 00.09-.368V.34z" fill="#131F8D"/><path d="M1.804 0c.07.679 1.61 1.182 2.157 2.043a.725.725 0 01.098.392v1.968s-.276-.625-1.153-1.163c-.576-.354-.87-.713-1.005-.917a.662.662 0 01-.097-.368V0z" fill="#131F8D"/></svg>