<svg width="28" height="28" fill="none" xmlns="http://www.w3.org/2000/svg"><circle cx="13.775" cy="13.853" r="13.775" fill="#EBECF0"/><path d="M20.53 17.379c0-.057-.058-.057-.058-.114-.228-.458-.743-1.03-1.43-1.659-.342-.286-.514-.514-.628-.629-.172-.229-.172-.4-.115-.629.058-.171.286-.457.687-.972.228-.286.343-.457.514-.629.858-1.143 1.258-1.887 1.144-2.23l-.057-.057c-.057-.057-.115-.115-.229-.115-.114-.057-.286-.057-.457 0h-2.574l-.057.058c-.057.057-.057.057-.057.114-.229.629-.515 1.144-.8 1.716a9.771 9.771 0 01-.515.8c-.172.229-.286.4-.4.515-.115.114-.23.171-.286.286-.058.057-.172.114-.172.057-.057 0-.114 0-.114-.057l-.172-.172c-.057-.057-.057-.171-.114-.286v-2.859c0-.057-.057-.171-.057-.229l-.172-.171c-.057-.057-.171-.057-.229-.115a5.129 5.129 0 00-1.029-.114c-.915 0-1.544.057-1.773.172-.114.057-.228.114-.286.228-.114.115-.114.172-.057.172.286.057.515.171.63.343l.056.114c.058.058.058.172.115.343.057.172.057.344.057.572v.915c0 .286-.057.458-.057.63 0 .17-.057.285-.114.342-.058.115-.058.172-.115.172 0 0 0 .057-.057.057s-.114.057-.229.057a.433.433 0 01-.229-.114.69.69 0 01-.285-.286 1.995 1.995 0 01-.343-.515c-.115-.229-.286-.457-.4-.8l-.115-.229c-.057-.114-.172-.343-.286-.629-.114-.286-.229-.515-.343-.8-.057-.115-.114-.172-.172-.23h-.057s-.057-.056-.114-.056-.115-.058-.172-.058H6.75c-.23 0-.343.057-.4.115l-.058.057v.114c0 .057 0 .115.057.229.286.686.63 1.372.972 2.058.344.63.687 1.201.915 1.602.286.4.515.8.8 1.143.287.343.458.572.516.686l.228.23.172.17c.114.115.286.287.514.458.23.172.515.343.801.515.286.171.63.286.972.4.4.114.744.172 1.087.114h.857a.519.519 0 00.4-.171l.058-.057c0-.058.057-.058.057-.115v-.228c0-.23 0-.4.057-.572.057-.172.057-.286.114-.4a.79.79 0 01.172-.23l.114-.114h.058c.114-.057.286 0 .4.115.171.114.343.286.457.457.115.172.286.343.515.572.229.229.4.4.515.457l.171.115c.114.057.229.114.4.172.172.057.286.057.4.057l1.945-.057c.171 0 .343-.058.457-.115.115-.057.172-.114.172-.229v-.228c-.114-.115-.114-.172-.114-.23z" fill="#131F8D"/></svg>