<svg width="28" height="28" fill="none" xmlns="http://www.w3.org/2000/svg"><circle cx="13.775" cy="13.853" r="13.775" fill="#EBECF0"/><path d="M19.776 13.104c0-.267-.044-.579-.044-.935-.045-.356-.09-.712-.134-1.024-.089-.356-.222-.623-.49-.846a1.505 1.505 0 00-.846-.4c-1.024-.134-2.537-.179-4.586-.179-2.048 0-3.606.045-4.586.179a1.505 1.505 0 00-.846.4c-.222.223-.4.49-.49.846a3.57 3.57 0 00-.133 1.024c-.045.356-.045.668-.045.935v2.048c0 .268.045.58.045.935.044.357.089.713.134 1.025.089.356.222.623.49.846.222.222.534.356.845.4 1.024.134 2.538.178 4.586.178 2.049 0 3.607-.044 4.586-.178.312-.044.624-.178.846-.4.223-.223.401-.49.49-.846a3.54 3.54 0 00.134-1.024c.044-.357.044-.668.044-.936v-2.048zm-3.74 1.38l-3.517 2.182a.34.34 0 01-.223.09c-.089 0-.133 0-.223-.045a.468.468 0 01-.222-.4v-4.409c0-.178.089-.311.222-.4a.405.405 0 01.446 0l3.517 2.181c.134.09.223.223.223.356 0 .134-.09.357-.223.446z" fill="#131F8D"/></svg>