<svg width="177" height="55" fill="none" xmlns="http://www.w3.org/2000/svg"><path d="M52.938 7.68h5.746c2.357 0 4.273.599 5.746 1.795 1.473 1.196 2.21 2.825 2.21 4.888 0 2.063-.737 3.692-2.21 4.888-1.473 1.196-3.389 1.794-5.746 1.794h-3.718v4.836h-2.028V7.68zm2.028 11.467h3.848c1.699 0 3.103-.399 4.212-1.196 1.127-.797 1.69-1.994 1.69-3.588 0-1.577-.563-2.765-1.69-3.562-1.11-.815-2.513-1.222-4.212-1.222h-3.848v9.568zm18.706-3.406h8.918v1.898h-8.918v6.344h9.49v1.898H71.644V7.68h11.518v1.898h-9.49v6.162zM99.68 25.88H88.344V7.68h2.028v16.302h9.308v1.898zm6.96-10.14h8.918v1.898h-8.918v6.344h9.49v1.898h-11.518V7.68h11.518v1.898h-9.49v6.162zm28.192 10.14h-1.118L123.08 11.659V25.88h-2.028V7.68h1.144l10.608 14.222V7.68h2.028v18.2zm14.516-18.382c2.739 0 5.027 1.014 6.864 3.042l-1.326 1.222c-1.49-1.578-3.336-2.366-5.538-2.366-2.028 0-3.744.71-5.148 2.132-1.386 1.404-2.08 3.155-2.08 5.252s.694 3.857 2.08 5.278c1.404 1.404 3.12 2.106 5.148 2.106 1.89 0 3.502-.616 4.836-1.846v-4.394h-4.992v-1.586h7.02v6.734c-1.82 1.993-4.108 2.99-6.864 2.99-2.565 0-4.749-.901-6.552-2.704-1.802-1.82-2.704-4.013-2.704-6.578 0-2.565.902-4.75 2.704-6.552 1.803-1.82 3.987-2.73 6.552-2.73zm-32.631 22.763h4.012c1.677 0 2.986.448 3.927 1.343.941.896 1.411 2.012 1.411 3.35 0 1.337-.47 2.453-1.411 3.348-.941.896-2.25 1.343-3.927 1.343h-1.122v2.516h-2.89v-11.9zm2.89 6.647h1.343c.669 0 1.23-.164 1.683-.493.465-.328.697-.816.697-1.462 0-.623-.232-1.105-.697-1.445-.465-.35-1.026-.527-1.683-.527h-1.343v3.927zm12.447-6.647h4.182c1.654 0 2.929.442 3.825 1.326.895.884 1.343 1.978 1.343 3.281 0 .828-.204 1.564-.612 2.21-.397.635-.969 1.128-1.717 1.48.374.294.935 1.008 1.683 2.141l.935 1.462h-3.247l-.663-1.02a17.677 17.677 0 00-.731-1.054 1.47 1.47 0 00-.51-.425c-.216-.113-.51-.175-.884-.187h-.714v2.686h-2.89v-11.9zm2.89 2.72v3.757h1.564c.657 0 1.178-.153 1.564-.459.396-.317.595-.787.595-1.41 0-.601-.204-1.066-.612-1.395-.397-.328-.913-.493-1.547-.493h-1.564zm13.497-1.054c1.179-1.19 2.607-1.785 4.284-1.785 1.678 0 3.106.595 4.284 1.785 1.19 1.18 1.785 2.607 1.785 4.284 0 1.678-.595 3.111-1.785 4.301-1.178 1.18-2.606 1.768-4.284 1.768-1.677 0-3.105-.589-4.284-1.768-1.178-1.19-1.768-2.623-1.768-4.3 0-1.678.59-3.106 1.768-4.285zm6.545 1.87c-.6-.623-1.354-.935-2.261-.935-.906 0-1.66.312-2.261.935-.6.612-.901 1.417-.901 2.414 0 1.01.301 1.82.901 2.431.601.601 1.355.901 2.261.901.918 0 1.678-.3 2.278-.9.601-.613.901-1.423.901-2.432 0-.997-.306-1.802-.918-2.414z" fill="#fff"/><g filter="url(#filter0_d)"><path d="M21.368 6.121c4.884 0 9.569 1.837 13.023 5.107 3.453 3.27 5.394 7.706 5.394 12.33 0 4.626-1.94 9.061-5.394 12.331-3.454 3.27-8.139 5.108-13.023 5.108V6.12z" fill="#fff"/><rect x="19.037" y="2.881" width="8.566" height="41.655" rx="1" fill="#fff"/><rect width="7.923" height="18.04" rx="1" transform="matrix(.68139 .73193 -.76727 .64133 35.506 5.54)" fill="#fff"/><rect x="43.784" y="18.078" width="7.822" height="23.603" rx="1" transform="rotate(90 43.784 18.078)" fill="#fff"/><rect width="7.869" height="19.132" rx="1" transform="matrix(-.64687 .7626 -.79464 -.60708 42.186 34.097)" fill="#fff"/><path d="M19.731 4.605c2.591 0 5.157.42 7.55 1.238 2.395.816 4.57 2.014 6.402 3.523 1.832 1.51 3.285 3.301 4.277 5.273.992 1.972 1.502 4.086 1.502 6.22 0 2.135-.51 4.248-1.502 6.22-.992 1.972-2.445 3.764-4.277 5.273-1.832 1.51-4.007 2.707-6.401 3.524a23.442 23.442 0 01-7.551 1.237V4.605z" fill="#fff"/><path d="M34.195 16.766c-.467 3.628-11.198 6.27-14.082 11.083a.913.913 0 00-.125.472v10.794s1.737-3.175 7.262-5.905c4.635-2.29 6.381-4.626 6.823-5.318a.82.82 0 00.122-.445V16.766z" fill="#131F8D"/><path d="M7.198 13.409c.388 3.183 9.304 5.503 11.724 9.72a.906.906 0 01.115.453v9.467s-1.447-2.79-6.051-5.189c-3.828-1.995-5.292-4.028-5.676-4.657a.808.808 0 01-.112-.426V13.41zm2.32 13.975c.311 2.64 7.44 4.566 9.409 8.054.076.134.11.287.11.441v7.84s-1.164-2.32-4.865-4.316c-3.023-1.63-4.212-3.29-4.547-3.844a.796.796 0 01-.107-.415v-7.76z" fill="#fff"/><path d="M29.46 10.232c-.31 2.4-7.358 4.154-9.344 7.317a.881.881 0 00-.128.471v7.112s1.158-2.117 4.841-3.937c2.956-1.46 4.15-2.949 4.506-3.48a.786.786 0 00.124-.442v-7.04z" fill="#131F8D"/><path d="M11.144 7.991c.257 2.067 6.096 3.578 7.771 6.294a.869.869 0 01.122.459v6.115s-.965-1.828-4.034-3.4c-2.424-1.241-3.426-2.505-3.74-2.982a.774.774 0 01-.119-.43V7.99zM15.09 5.96c.125.95 2.876 1.651 3.805 2.867a.769.769 0 01.142.472v2.756s-.483-.866-2.017-1.61c-1.055-.512-1.571-1.032-1.79-1.307a.7.7 0 01-.14-.444V5.96z" fill="#fff"/><path d="M23.145 9.415c-.099.841-2.286 1.464-3.036 2.538a.754.754 0 00-.12.436v2.444s.385-.77 1.613-1.432c.833-.449 1.246-.905 1.426-1.152a.685.685 0 00.117-.408V9.415z" fill="#131F8D"/></g><defs><filter id="filter0_d" x="1.198" y=".881" width="48.586" height="53.655" filterUnits="userSpaceOnUse" color-interpolation-filters="sRGB"><feFlood flood-opacity="0" result="BackgroundImageFix"/><feColorMatrix in="SourceAlpha" values="0 0 0 0 0 0 0 0 0 0 0 0 0 0 0 0 0 0 127 0"/><feOffset dy="4"/><feGaussianBlur stdDeviation="3"/><feColorMatrix values="0 0 0 0 0 0 0 0 0 0 0 0 0 0 0 0 0 0 0.11 0"/><feBlend in2="BackgroundImageFix" result="effect1_dropShadow"/><feBlend in="SourceGraphic" in2="effect1_dropShadow" result="shape"/></filter></defs></svg>