<svg width="57" height="64" fill="none" xmlns="http://www.w3.org/2000/svg"><g filter="url(#filter0_d)"><path d="M22.898 6.445c5.807 0 11.377 2.255 15.484 6.269 4.106 4.014 6.413 9.458 6.413 15.134s-2.307 11.12-6.413 15.134c-4.107 4.014-9.677 6.269-15.484 6.269V6.445z" fill="#131F8D"/><rect x="21.006" y="2" width="11.114" height="51.126" rx="1" fill="#131F8D"/><rect width="9.585" height="21.737" rx="1" transform="matrix(.66971 .74262 -.75712 .65328 39.686 5.334)" fill="#131F8D"/><rect x="50.04" y="19.784" width="9.6" height="28.064" rx="1" transform="rotate(84.264 50.04 19.784)" fill="#131F8D"/><rect width="9.533" height="23.021" rx="1" transform="matrix(-.56099 .82782 -.83891 -.54426 48.735 38.47)" fill="#131F8D"/><path d="M21.006 7.556c5.306 0 10.394 2.166 14.146 6.022 3.752 3.857 5.86 9.086 5.86 14.54 0 5.453-2.108 10.683-5.86 14.539-3.752 3.856-8.84 6.022-14.146 6.022V7.556z" fill="#131F8D"/><path d="M36.566 22.005c-.512 4.344-12.338 7.503-15.452 13.282a.927.927 0 00-.108.442v12.95s1.902-3.788 7.953-7.047c5.189-2.794 7.072-5.643 7.504-6.4a.828.828 0 00.103-.414V22.005z" fill="#F8F8F8"/><path d="M6.224 13.915c.463 3.92 11.134 6.773 13.968 11.982a.921.921 0 01.108.443v11.68s-1.72-3.424-7.195-6.368c-4.65-2.502-6.365-5.053-6.776-5.764a.825.825 0 01-.105-.416V13.915zM8.983 31.07c.371 3.252 8.912 5.622 11.214 9.935a.91.91 0 01.103.431v9.683s-1.384-2.848-5.785-5.297c-3.682-2.05-5.076-4.139-5.433-4.767a.811.811 0 01-.1-.404v-9.582z" fill="#131F8D"/><path d="M32.12 13.112c-.363 2.876-8.698 4.974-10.991 8.777a.897.897 0 00-.123.466v8.54s1.359-2.526 5.68-4.698c3.547-1.782 4.932-3.599 5.315-4.193a.802.802 0 00.12-.438v-8.454z" fill="#F8F8F8"/><path d="M10.916 7.267c.306 2.55 7.32 4.41 9.27 7.777a.89.89 0 01.114.448v7.568s-1.147-2.243-4.796-4.172c-2.964-1.567-4.14-3.163-4.477-3.708a.794.794 0 01-.111-.421V7.267zm4.692-2.494c.15 1.179 3.494 2.047 4.56 3.57a.8.8 0 01.132.463v3.448s-.574-1.063-2.398-1.977c-1.315-.658-1.926-1.328-2.165-1.65a.722.722 0 01-.13-.435v-3.42z" fill="#131F8D"/><path d="M24.34 12.002c-.106 1.053-2.49 1.827-3.244 3.189a.795.795 0 00-.09.387v3.093s.408-.948 1.704-1.762c.941-.591 1.375-1.193 1.542-1.478a.711.711 0 00.088-.363v-3.066z" fill="#F8F8F8"/></g><defs><filter id="filter0_d" x=".224" y="0" width="56.776" height="63.126" filterUnits="userSpaceOnUse" color-interpolation-filters="sRGB"><feFlood flood-opacity="0" result="BackgroundImageFix"/><feColorMatrix in="SourceAlpha" values="0 0 0 0 0 0 0 0 0 0 0 0 0 0 0 0 0 0 127 0"/><feOffset dy="4"/><feGaussianBlur stdDeviation="3"/><feColorMatrix values="0 0 0 0 0 0 0 0 0 0 0 0 0 0 0 0 0 0 0.11 0"/><feBlend in2="BackgroundImageFix" result="effect1_dropShadow"/><feBlend in="SourceGraphic" in2="effect1_dropShadow" result="shape"/></filter></defs></svg>