<svg width="188" height="58" fill="none" xmlns="http://www.w3.org/2000/svg"><path d="M54.39 5h6.63c2.72 0 4.93.69 6.63 2.07 1.7 1.38 2.55 3.26 2.55 5.64s-.85 4.26-2.55 5.64c-1.7 1.38-3.91 2.07-6.63 2.07h-4.29V26h-2.34V5zm2.34 13.23h4.44c1.96 0 3.58-.46 4.86-1.38 1.3-.92 1.95-2.3 1.95-4.14 0-1.82-.65-3.19-1.95-4.11-1.28-.94-2.9-1.41-4.86-1.41h-4.44v11.04zm21.584-3.93h10.29v2.19h-10.29v7.32h10.95V26h-13.29V5h13.29v2.19h-10.95v7.11zM108.323 26h-13.08V5h2.34v18.81h10.74V26zm8.031-11.7h10.29v2.19h-10.29v7.32h10.95V26h-13.29V5h13.29v2.19h-10.95v7.11zM148.883 26h-1.29l-12.27-16.41V26h-2.34V5h1.32l12.24 16.41V5h2.34v21zm16.75-21.21c3.16 0 5.8 1.17 7.92 3.51l-1.53 1.41c-1.72-1.82-3.85-2.73-6.39-2.73-2.34 0-4.32.82-5.94 2.46-1.6 1.62-2.4 3.64-2.4 6.06 0 2.42.8 4.45 2.4 6.09 1.62 1.62 3.6 2.43 5.94 2.43 2.18 0 4.04-.71 5.58-2.13v-5.07h-5.76v-1.83h8.1v7.77c-2.1 2.3-4.74 3.45-7.92 3.45-2.96 0-5.48-1.04-7.56-3.12-2.08-2.1-3.12-4.63-3.12-7.59s1.04-5.48 3.12-7.56c2.08-2.1 4.6-3.15 7.56-3.15z" fill="#131F8D"/><path d="M121.121 32.3h4.956c2.072 0 3.689.553 4.851 1.659 1.162 1.106 1.743 2.485 1.743 4.137 0 1.652-.581 3.031-1.743 4.137-1.162 1.106-2.779 1.659-4.851 1.659h-1.386V47h-3.57V32.3zm3.57 8.211h1.659c.826 0 1.519-.203 2.079-.609.574-.406.861-1.008.861-1.806 0-.77-.287-1.365-.861-1.785-.574-.434-1.267-.651-2.079-.651h-1.659v4.851zm15.375-8.211h5.166c2.044 0 3.619.546 4.725 1.638 1.106 1.092 1.659 2.443 1.659 4.053 0 1.022-.252 1.932-.756 2.73-.49.784-1.197 1.393-2.121 1.827.462.364 1.155 1.246 2.079 2.646L151.973 47h-4.011l-.819-1.26c-.434-.658-.735-1.092-.903-1.302a1.808 1.808 0 00-.63-.525c-.266-.14-.63-.217-1.092-.231h-.882V47h-3.57V32.3zm3.57 3.36v4.641h1.932c.812 0 1.456-.189 1.932-.567.49-.392.735-.973.735-1.743 0-.742-.252-1.316-.756-1.722-.49-.406-1.127-.609-1.911-.609h-1.932zm16.674-1.302c1.456-1.47 3.22-2.205 5.292-2.205 2.072 0 3.836.735 5.292 2.205 1.47 1.456 2.205 3.22 2.205 5.292 0 2.072-.735 3.843-2.205 5.313-1.456 1.456-3.22 2.184-5.292 2.184-2.072 0-3.836-.728-5.292-2.184-1.456-1.47-2.184-3.241-2.184-5.313 0-2.072.728-3.836 2.184-5.292zm8.085 2.31c-.742-.77-1.673-1.155-2.793-1.155s-2.051.385-2.793 1.155c-.742.756-1.113 1.75-1.113 2.982 0 1.246.371 2.247 1.113 3.003.742.742 1.673 1.113 2.793 1.113 1.134 0 2.072-.371 2.814-1.113.742-.756 1.113-1.757 1.113-3.003 0-1.232-.378-2.226-1.134-2.982z" fill="#525252"/><g filter="url(#filter0_d)"><path d="M21.702 6c5.225 0 10.237 2.029 13.932 5.64 3.694 3.612 5.77 8.51 5.77 13.617 0 5.107-2.076 10.005-5.77 13.616-3.695 3.612-8.707 5.64-13.932 5.64V6z" fill="#131F8D"/><rect x="20" y="2" width="10" height="46" rx="1" fill="#131F8D"/><rect width="8.624" height="19.558" rx="1" transform="matrix(.66971 .74262 -.75712 .65328 36.807 5)" fill="#131F8D"/><rect x="46.124" y="18" width="8.638" height="25.25" rx="1" transform="rotate(84.264 46.124 18)" fill="#131F8D"/><rect width="8.578" height="20.713" rx="1" transform="matrix(-.56099 .82782 -.83891 -.54426 44.949 34.813)" fill="#131F8D"/><path d="M20 7c4.774 0 9.352 1.95 12.728 5.418C36.104 15.889 38 20.593 38 25.5s-1.896 9.612-5.272 13.081C29.352 42.051 24.774 44 20 44V7z" fill="#131F8D"/><path d="M34 20c-.46 3.903-11.073 6.743-13.892 11.929a.922.922 0 00-.108.442V44s1.711-3.41 7.156-6.34c4.623-2.49 6.33-5.03 6.74-5.739a.825.825 0 00.104-.416V20z" fill="#F8F8F8"/><path d="M6.7 12.722c.416 3.522 9.99 6.087 12.556 10.76a.915.915 0 01.109.443V34.41s-1.548-3.08-6.473-5.73c-4.142-2.229-5.696-4.5-6.086-5.166a.82.82 0 01-.106-.417V12.722zm2.482 15.433c.334 2.922 7.992 5.051 10.08 8.92.07.132.103.28.103.43v8.689s-1.245-2.562-5.204-4.766c-3.279-1.825-4.541-3.684-4.878-4.27a.802.802 0 01-.1-.404v-8.6z" fill="#131F8D"/><path d="M30 12c-.326 2.582-7.795 4.467-9.877 7.875a.888.888 0 00-.123.466V28s1.222-2.273 5.111-4.227c3.15-1.584 4.405-3.197 4.768-3.753a.794.794 0 00.121-.438V12z" fill="#F8F8F8"/><path d="M10.922 6.74c.275 2.288 6.558 3.96 8.329 6.976a.88.88 0 01.114.448v6.785s-1.032-2.018-4.315-3.754c-2.634-1.393-3.699-2.81-4.017-3.318a.783.783 0 01-.111-.42V6.74zm4.221-2.244c.134 1.055 3.114 1.833 4.09 3.192a.784.784 0 01.132.462v3.077s-.516-.957-2.158-1.779c-1.158-.58-1.71-1.17-1.934-1.467a.71.71 0 01-.13-.433V4.496z" fill="#131F8D"/><path d="M23 11c-.095.942-2.22 1.637-2.91 2.851a.779.779 0 00-.09.387V17s.367-.852 1.533-1.585c.83-.52 1.22-1.05 1.378-1.313a.7.7 0 00.089-.363V11z" fill="#F8F8F8"/></g><defs><filter id="filter0_d" x=".7" y="0" width="52.287" height="58" filterUnits="userSpaceOnUse" color-interpolation-filters="sRGB"><feFlood flood-opacity="0" result="BackgroundImageFix"/><feColorMatrix in="SourceAlpha" values="0 0 0 0 0 0 0 0 0 0 0 0 0 0 0 0 0 0 127 0"/><feOffset dy="4"/><feGaussianBlur stdDeviation="3"/><feColorMatrix values="0 0 0 0 0 0 0 0 0 0 0 0 0 0 0 0 0 0 0.11 0"/><feBlend in2="BackgroundImageFix" result="effect1_dropShadow"/><feBlend in="SourceGraphic" in2="effect1_dropShadow" result="shape"/></filter></defs></svg>