<svg width="17" height="46" fill="none" xmlns="http://www.w3.org/2000/svg"><path d="M0 13.973c.531 5.105 12.814 8.814 15.995 15.622a.942.942 0 01.086.4V45.24s-1.966-4.441-8.22-8.26C2.399 33.642.482 30.236.084 29.43A.848.848 0 010 29.054v-15.08zm6.656-7.317c.305 3.024 7.34 5.227 9.234 9.237a.91.91 0 01.083.39v9.008s-1.139-2.647-4.762-4.923c-3.036-1.908-4.183-3.852-4.474-4.433a.81.81 0 01-.081-.366V6.656zM9.318 0c.216 1.924 5.139 3.33 6.552 5.859a.856.856 0 01.103.424v5.697s-.813-1.702-3.401-3.165C10.53 7.66 9.684 6.485 9.419 6.04a.769.769 0 01-.101-.398V0z" fill="#131F8D"/></svg>