<svg width="177" height="55" viewBox="0 0 177 55" fill="none" xmlns="http://www.w3.org/2000/svg">
<path d="M52.938 7.68086H58.684C61.0413 7.68086 62.9567 8.27886 64.43 9.47486C65.9033 10.6709 66.64 12.3002 66.64 14.3629C66.64 16.4255 65.9033 18.0549 64.43 19.2509C62.9567 20.4469 61.0413 21.0449 58.684 21.0449H54.966V25.8809H52.938V7.68086ZM54.966 19.1469H58.814C60.5127 19.1469 61.9167 18.7482 63.026 17.9509C64.1527 17.1535 64.716 15.9575 64.716 14.3629C64.716 12.7855 64.1527 11.5982 63.026 10.8009C61.9167 9.98619 60.5127 9.57886 58.814 9.57886H54.966V19.1469ZM73.6718 15.7409H82.5898V17.6389H73.6718V23.9829H83.1618V25.8809H71.6438V7.68086H83.1618V9.57886H73.6718V15.7409ZM99.6797 25.8809H88.3437V7.68086H90.3717V23.9829H99.6797V25.8809ZM106.64 15.7409H115.558V17.6389H106.64V23.9829H116.13V25.8809H104.612V7.68086H116.13V9.57886H106.64V15.7409ZM134.832 25.8809H133.714L123.08 11.6589V25.8809H121.052V7.68086H122.196L132.804 21.9029V7.68086H134.832V25.8809ZM149.348 7.49886C152.087 7.49886 154.375 8.51286 156.212 10.5409L154.886 11.7629C153.396 10.1855 151.55 9.39686 149.348 9.39686C147.32 9.39686 145.604 10.1075 144.2 11.5289C142.814 12.9329 142.12 14.6835 142.12 16.7809C142.12 18.8782 142.814 20.6375 144.2 22.0589C145.604 23.4629 147.32 24.1649 149.348 24.1649C151.238 24.1649 152.85 23.5495 154.184 22.3189V17.9249H149.192V16.3389H156.212V23.0729C154.392 25.0662 152.104 26.0629 149.348 26.0629C146.783 26.0629 144.599 25.1615 142.796 23.3589C140.994 21.5389 140.092 19.3462 140.092 16.7809C140.092 14.2155 140.994 12.0315 142.796 10.2289C144.599 8.40886 146.783 7.49886 149.348 7.49886Z" fill="white"/>
<path d="M116.717 30.2614H120.729C122.406 30.2614 123.715 30.7091 124.656 31.6044C125.597 32.4998 126.067 33.6161 126.067 34.9534C126.067 36.2908 125.597 37.4071 124.656 38.3024C123.715 39.1978 122.406 39.6454 120.729 39.6454H119.607V42.1614H116.717V30.2614ZM119.607 36.9084H120.95C121.619 36.9084 122.18 36.7441 122.633 36.4154C123.098 36.0868 123.33 35.5994 123.33 34.9534C123.33 34.3301 123.098 33.8484 122.633 33.5084C122.168 33.1571 121.607 32.9814 120.95 32.9814H119.607V36.9084ZM132.054 30.2614H136.236C137.89 30.2614 139.165 30.7034 140.061 31.5874C140.956 32.4714 141.404 33.5651 141.404 34.8684C141.404 35.6958 141.2 36.4324 140.792 37.0784C140.395 37.7131 139.823 38.2061 139.075 38.5574C139.449 38.8521 140.01 39.5661 140.758 40.6994L141.693 42.1614H138.446L137.783 41.1414C137.431 40.6088 137.188 40.2574 137.052 40.0874C136.927 39.9174 136.757 39.7758 136.542 39.6624C136.326 39.5491 136.032 39.4868 135.658 39.4754H134.944V42.1614H132.054V30.2614ZM134.944 32.9814V36.7384H136.508C137.165 36.7384 137.686 36.5854 138.072 36.2794C138.468 35.9621 138.667 35.4918 138.667 34.8684C138.667 34.2678 138.463 33.8031 138.055 33.4744C137.658 33.1458 137.142 32.9814 136.508 32.9814H134.944ZM148.441 31.9274C149.62 30.7374 151.048 30.1424 152.725 30.1424C154.403 30.1424 155.831 30.7374 157.009 31.9274C158.199 33.1061 158.794 34.5341 158.794 36.2114C158.794 37.8888 158.199 39.3224 157.009 40.5124C155.831 41.6911 154.403 42.2804 152.725 42.2804C151.048 42.2804 149.62 41.6911 148.441 40.5124C147.263 39.3224 146.673 37.8888 146.673 36.2114C146.673 34.5341 147.263 33.1061 148.441 31.9274ZM154.986 33.7974C154.386 33.1741 153.632 32.8624 152.725 32.8624C151.819 32.8624 151.065 33.1741 150.464 33.7974C149.864 34.4094 149.563 35.2141 149.563 36.2114C149.563 37.2201 149.864 38.0304 150.464 38.6424C151.065 39.2431 151.819 39.5434 152.725 39.5434C153.643 39.5434 154.403 39.2431 155.003 38.6424C155.604 38.0304 155.904 37.2201 155.904 36.2114C155.904 35.2141 155.598 34.4094 154.986 33.7974Z" fill="white"/>
<g filter="url(#filter0_d)">
<path d="M21.3676 6.12112C26.2521 6.12112 30.9366 7.95831 34.3905 11.2285C37.8444 14.4988 39.7848 18.9341 39.7848 23.5589C39.7848 28.1837 37.8444 32.6191 34.3905 35.8893C30.9366 39.1596 26.2521 40.9968 21.3676 40.9968L21.3676 23.5589L21.3676 6.12112Z" fill="white"/>
<rect x="19.0366" y="2.88086" width="8.5665" height="41.6549" rx="1" fill="white"/>
<rect width="7.92334" height="18.0402" rx="1" transform="matrix(0.681385 0.731926 -0.767267 0.641328 35.5061 5.53967)" fill="white"/>
<rect x="43.7844" y="18.0777" width="7.8219" height="23.6034" rx="1" transform="rotate(90 43.7844 18.0777)" fill="white"/>
<rect width="7.86934" height="19.132" rx="1" transform="matrix(-0.646871 0.762599 -0.794644 -0.607076 42.1857 34.0975)" fill="white"/>
<path d="M19.731 4.60535C22.3221 4.60535 24.8878 5.02576 27.2817 5.84259C29.6756 6.65943 31.8507 7.85667 33.6829 9.36598C35.5151 10.8753 36.9685 12.6671 37.96 14.6391C38.9516 16.6111 39.462 18.7247 39.462 20.8592C39.462 22.9936 38.9516 25.1072 37.96 27.0792C36.9685 29.0512 35.5151 30.843 33.6829 32.3523C31.8507 33.8617 29.6756 35.0589 27.2817 35.8757C24.8878 36.6926 22.3221 37.113 19.731 37.113L19.731 20.8592V4.60535Z" fill="white"/>
<path d="M34.1948 16.7659C33.7283 20.3938 22.9973 23.0357 20.1134 27.8485C20.0278 27.9912 19.9885 28.1545 19.9885 28.3209V39.1149C19.9885 39.1149 21.7249 35.9403 27.2495 33.2102C31.885 30.9194 33.6313 28.584 34.0733 27.8916C34.158 27.7588 34.1948 27.6043 34.1948 27.4468V16.7659Z" fill="#131F8D"/>
<path d="M7.19803 13.409C7.58621 16.5923 16.5022 18.9118 18.9216 23.1291C19.0007 23.2669 19.0366 23.4235 19.0366 23.5824V33.049C19.0366 33.049 17.5897 30.2592 12.9858 27.86C9.15801 25.8652 7.69437 23.8319 7.30967 23.2031C7.23118 23.0748 7.19803 22.9277 7.19803 22.7773V13.409Z" fill="white"/>
<path d="M9.51829 27.3839C9.82948 30.0239 16.9571 31.9496 18.927 35.4378C19.0029 35.5722 19.0366 35.7247 19.0366 35.8791V43.7192C19.0366 43.7192 17.8733 41.3989 14.1717 39.4034C11.149 37.7738 9.95988 36.1133 9.62542 35.5591C9.54999 35.4341 9.51829 35.2903 9.51829 35.1443V27.3839Z" fill="white"/>
<path d="M29.4594 10.2322C29.1507 12.6326 22.1017 14.3856 20.1161 17.5485C20.0276 17.6894 19.9885 17.8537 19.9885 18.0201V25.1316C19.9885 25.1316 21.1461 23.0152 24.8292 21.1951C27.785 19.7344 28.9787 18.2464 29.3348 17.7158C29.4226 17.585 29.4594 17.4305 29.4594 17.2729V10.2322Z" fill="#131F8D"/>
<path d="M11.1442 7.99113C11.4007 10.058 17.2403 11.569 18.9153 14.285C19 14.4224 19.0366 14.5823 19.0366 14.7437V20.8587C19.0366 20.8587 18.072 19.0309 15.0027 17.4591C12.5792 16.2179 11.5772 14.9539 11.2629 14.477C11.1789 14.3495 11.1442 14.1993 11.1442 14.0466V7.99113Z" fill="white"/>
<path d="M15.0904 5.95956C15.2148 6.90932 17.9664 7.61131 18.8954 8.82702C18.998 8.9613 19.0366 9.13042 19.0366 9.29941V12.0547C19.0366 12.0547 18.5543 11.189 17.0197 10.4444C15.9652 9.93275 15.449 9.41296 15.2291 9.13778C15.1292 9.01272 15.0904 8.85435 15.0904 8.69429V5.95956Z" fill="white"/>
<path d="M23.1455 9.41488C23.0463 10.2564 20.8587 10.8791 20.1086 11.9534C20.0203 12.08 19.9885 12.235 19.9885 12.3893V14.8328C19.9885 14.8328 20.3744 14.0632 21.6021 13.4014C22.435 12.9523 22.8482 12.4962 23.0278 12.2493C23.1136 12.1312 23.1455 11.9866 23.1455 11.8407V9.41488Z" fill="#131F8D"/>
</g>
<defs>
<filter id="filter0_d" x="1.198" y="0.880859" width="48.5863" height="53.6549" filterUnits="userSpaceOnUse" color-interpolation-filters="sRGB">
<feFlood flood-opacity="0" result="BackgroundImageFix"/>
<feColorMatrix in="SourceAlpha" type="matrix" values="0 0 0 0 0 0 0 0 0 0 0 0 0 0 0 0 0 0 127 0"/>
<feOffset dy="4"/>
<feGaussianBlur stdDeviation="3"/>
<feColorMatrix type="matrix" values="0 0 0 0 0 0 0 0 0 0 0 0 0 0 0 0 0 0 0.11 0"/>
<feBlend mode="normal" in2="BackgroundImageFix" result="effect1_dropShadow"/>
<feBlend mode="normal" in="SourceGraphic" in2="effect1_dropShadow" result="shape"/>
</filter>
</defs>
</svg>
