<svg width="57" height="64" viewBox="0 0 57 64" fill="none" xmlns="http://www.w3.org/2000/svg">
<g filter="url(#filter0_d)">
<path d="M22.8978 6.44536C28.7054 6.44536 34.2751 8.70026 38.3817 12.714C42.4882 16.7278 44.7953 22.1716 44.7953 27.8479C44.7953 33.5242 42.4882 38.9681 38.3817 42.9818C34.2751 46.9956 28.7053 49.2505 22.8978 49.2505L22.8978 27.8479L22.8978 6.44536Z" fill="#131F8D"/>
<rect x="21.0058" y="2" width="11.1143" height="51.1258" rx="1" fill="#131F8D"/>
<rect width="9.58479" height="21.7369" rx="1" transform="matrix(0.669714 0.742619 -0.757117 0.653279 39.6859 5.33447)" fill="#131F8D"/>
<rect x="50.0404" y="19.7837" width="9.60032" height="28.0638" rx="1" transform="rotate(84.2637 50.0404 19.7837)" fill="#131F8D"/>
<rect width="9.53328" height="23.0209" rx="1" transform="matrix(-0.56099 0.827823 -0.838915 -0.544263 48.7349 38.4707)" fill="#131F8D"/>
<path d="M21.0057 7.55615C26.3116 7.55615 31.4001 9.72244 35.1519 13.5785C38.9037 17.4345 41.0115 22.6644 41.0115 28.1176C41.0115 33.5708 38.9037 38.8007 35.1519 42.6567C31.4001 46.5127 26.3116 48.679 21.0057 48.679L21.0057 28.1176V7.55615Z" fill="#131F8D"/>
<path d="M36.5662 22.0054C36.0536 26.3489 24.2284 29.5083 21.1137 35.2866C21.0403 35.4226 21.0062 35.5745 21.0062 35.729V48.6797C21.0062 48.6797 22.9079 44.8907 28.9591 41.6322C34.1475 38.8382 36.0312 35.9886 36.4628 35.2328C36.5353 35.1059 36.5662 34.9637 36.5662 34.8176V22.0054Z" fill="#F8F8F8"/>
<path d="M6.22394 13.915C6.68702 17.8352 17.3575 20.6881 20.1916 25.8973C20.2655 26.0331 20.2997 26.1852 20.2997 26.3399V38.0205C20.2997 38.0205 18.5793 34.5964 13.1054 31.6517C8.45527 29.1502 6.73967 26.5992 6.32863 25.8881C6.25544 25.7614 6.22394 25.6181 6.22394 25.4718V13.915Z" fill="#131F8D"/>
<path d="M8.98267 31.0693C9.35413 34.3223 17.8945 36.6917 20.1969 41.0053C20.2676 41.1377 20.2997 41.2859 20.2997 41.436V51.1187C20.2997 51.1187 18.9165 48.2707 14.5154 45.8215C10.8329 43.7722 9.43936 41.683 9.08247 41.0554C9.01232 40.9321 8.98267 40.7928 8.98267 40.6508V31.0693Z" fill="#131F8D"/>
<path d="M32.1205 13.1123C31.7568 15.9884 23.4216 18.0857 21.1289 21.8886C21.0442 22.029 21.0062 22.1906 21.0062 22.3545V30.8952C21.0062 30.8952 22.3646 28.3692 26.6868 26.1969C30.2328 24.4146 31.6177 22.5984 32.0008 22.0036C32.0848 21.873 32.1205 21.7208 32.1205 21.5656V13.1123Z" fill="#F8F8F8"/>
<path d="M10.9159 7.26709C11.2224 9.81706 18.2365 11.6777 20.1862 15.0443C20.2648 15.1801 20.2997 15.3353 20.2997 15.4922V23.0603C20.2997 23.0603 19.1528 20.817 15.5035 18.8877C12.5404 17.3212 11.3646 15.7251 11.0272 15.1802C10.949 15.054 10.9159 14.9072 10.9159 14.7587V7.26709Z" fill="#131F8D"/>
<path d="M15.6078 4.77295C15.7573 5.95185 19.1017 6.81972 20.1685 8.34332C20.2628 8.47806 20.2997 8.64201 20.2997 8.80649V12.254C20.2997 12.254 19.7262 11.1913 17.9016 10.2774C16.5866 9.61885 15.9757 8.94922 15.7369 8.6265C15.6443 8.50132 15.6078 8.34735 15.6078 8.19164V4.77295Z" fill="#131F8D"/>
<path d="M24.3405 12.002C24.234 13.0545 21.8501 13.8289 21.0959 15.1909C21.0306 15.3088 21.0062 15.4436 21.0062 15.5783V18.6705C21.0062 18.6705 21.4137 17.7233 22.7104 16.9087C23.6513 16.3175 24.085 15.7164 24.2522 15.431C24.3165 15.3213 24.3405 15.1951 24.3405 15.0679V12.002Z" fill="#F8F8F8"/>
</g>
<defs>
<filter id="filter0_d" x="0.223938" y="0" width="56.776" height="63.1258" filterUnits="userSpaceOnUse" color-interpolation-filters="sRGB">
<feFlood flood-opacity="0" result="BackgroundImageFix"/>
<feColorMatrix in="SourceAlpha" type="matrix" values="0 0 0 0 0 0 0 0 0 0 0 0 0 0 0 0 0 0 127 0"/>
<feOffset dy="4"/>
<feGaussianBlur stdDeviation="3"/>
<feColorMatrix type="matrix" values="0 0 0 0 0 0 0 0 0 0 0 0 0 0 0 0 0 0 0.11 0"/>
<feBlend mode="normal" in2="BackgroundImageFix" result="effect1_dropShadow"/>
<feBlend mode="normal" in="SourceGraphic" in2="effect1_dropShadow" result="shape"/>
</filter>
</defs>
</svg>
