<svg width="188" height="58" viewBox="0 0 188 58" fill="none" xmlns="http://www.w3.org/2000/svg">
<path d="M54.39 5H61.02C63.74 5 65.95 5.69 67.65 7.07C69.35 8.45 70.2 10.33 70.2 12.71C70.2 15.09 69.35 16.97 67.65 18.35C65.95 19.73 63.74 20.42 61.02 20.42H56.73V26H54.39V5ZM56.73 18.23H61.17C63.13 18.23 64.75 17.77 66.03 16.85C67.33 15.93 67.98 14.55 67.98 12.71C67.98 10.89 67.33 9.52 66.03 8.6C64.75 7.66 63.13 7.19 61.17 7.19H56.73V18.23ZM78.3136 14.3H88.6036V16.49H78.3136V23.81H89.2636V26H75.9736V5H89.2636V7.19H78.3136V14.3ZM108.323 26H95.2427V5H97.5827V23.81H108.323V26ZM116.354 14.3H126.644V16.49H116.354V23.81H127.304V26H114.014V5H127.304V7.19H116.354V14.3ZM148.883 26H147.593L135.323 9.59V26H132.983V5H134.303L146.543 21.41V5H148.883V26ZM165.633 4.79C168.793 4.79 171.433 5.96 173.553 8.3L172.023 9.71C170.303 7.89 168.173 6.98 165.633 6.98C163.293 6.98 161.313 7.8 159.693 9.44C158.093 11.06 157.293 13.08 157.293 15.5C157.293 17.92 158.093 19.95 159.693 21.59C161.313 23.21 163.293 24.02 165.633 24.02C167.813 24.02 169.673 23.31 171.213 21.89V16.82H165.453V14.99H173.553V22.76C171.453 25.06 168.813 26.21 165.633 26.21C162.673 26.21 160.153 25.17 158.073 23.09C155.993 20.99 154.953 18.46 154.953 15.5C154.953 12.54 155.993 10.02 158.073 7.94C160.153 5.84 162.673 4.79 165.633 4.79Z" fill="#131F8D"/>
<path d="M121.121 32.3H126.077C128.149 32.3 129.766 32.853 130.928 33.959C132.09 35.065 132.671 36.444 132.671 38.096C132.671 39.748 132.09 41.127 130.928 42.233C129.766 43.339 128.149 43.892 126.077 43.892H124.691V47H121.121V32.3ZM124.691 40.511H126.35C127.176 40.511 127.869 40.308 128.429 39.902C129.003 39.496 129.29 38.894 129.29 38.096C129.29 37.326 129.003 36.731 128.429 36.311C127.855 35.877 127.162 35.66 126.35 35.66H124.691V40.511ZM140.066 32.3H145.232C147.276 32.3 148.851 32.846 149.957 33.938C151.063 35.03 151.616 36.381 151.616 37.991C151.616 39.013 151.364 39.923 150.86 40.721C150.37 41.505 149.663 42.114 148.739 42.548C149.201 42.912 149.894 43.794 150.818 45.194L151.973 47H147.962L147.143 45.74C146.709 45.082 146.408 44.648 146.24 44.438C146.086 44.228 145.876 44.053 145.61 43.913C145.344 43.773 144.98 43.696 144.518 43.682H143.636V47H140.066V32.3ZM143.636 35.66V40.301H145.568C146.38 40.301 147.024 40.112 147.5 39.734C147.99 39.342 148.235 38.761 148.235 37.991C148.235 37.249 147.983 36.675 147.479 36.269C146.989 35.863 146.352 35.66 145.568 35.66H143.636ZM160.31 34.358C161.766 32.888 163.53 32.153 165.602 32.153C167.674 32.153 169.438 32.888 170.894 34.358C172.364 35.814 173.099 37.578 173.099 39.65C173.099 41.722 172.364 43.493 170.894 44.963C169.438 46.419 167.674 47.147 165.602 47.147C163.53 47.147 161.766 46.419 160.31 44.963C158.854 43.493 158.126 41.722 158.126 39.65C158.126 37.578 158.854 35.814 160.31 34.358ZM168.395 36.668C167.653 35.898 166.722 35.513 165.602 35.513C164.482 35.513 163.551 35.898 162.809 36.668C162.067 37.424 161.696 38.418 161.696 39.65C161.696 40.896 162.067 41.897 162.809 42.653C163.551 43.395 164.482 43.766 165.602 43.766C166.736 43.766 167.674 43.395 168.416 42.653C169.158 41.897 169.529 40.896 169.529 39.65C169.529 38.418 169.151 37.424 168.395 36.668Z" fill="#525252"/>
<g filter="url(#filter0_d)">
<path d="M21.7021 6.00009C26.9274 6.00009 31.9388 8.02893 35.6336 11.6403C39.3285 15.2516 41.4042 20.1497 41.4042 25.2569C41.4042 30.3641 39.3285 35.2621 35.6336 38.8735C31.9388 42.4848 26.9274 44.5137 21.7021 44.5137L21.7021 25.2569L21.7021 6.00009Z" fill="#131F8D"/>
<rect x="20" y="2" width="10" height="46" rx="1" fill="#131F8D"/>
<rect width="8.62384" height="19.5576" rx="1" transform="matrix(0.669714 0.742619 -0.757117 0.653279 36.8074 5)" fill="#131F8D"/>
<rect x="46.1238" y="18" width="8.63782" height="25.2502" rx="1" transform="rotate(84.2637 46.1238 18)" fill="#131F8D"/>
<rect width="8.5775" height="20.7128" rx="1" transform="matrix(-0.56099 0.827823 -0.838915 -0.544263 44.9488 34.813)" fill="#131F8D"/>
<path d="M20 7C24.7739 7 29.3523 8.9491 32.7279 12.4185C36.1036 15.8879 38 20.5935 38 25.5C38 30.4065 36.1036 35.1121 32.7279 38.5815C29.3523 42.0509 24.7739 44 20 44L20 25.5V7Z" fill="#131F8D"/>
<path d="M34 20C33.5394 23.9028 22.9274 26.7431 20.1079 31.929C20.0341 32.0648 20 32.2168 20 32.3713V44C20 44 21.7111 40.5909 27.1556 37.6591C31.779 35.1694 33.4858 32.6305 33.8954 31.9214C33.9685 31.7949 34 31.6515 34 31.5054V20Z" fill="#F8F8F8"/>
<path d="M6.70026 12.7222C7.1163 16.2441 16.6894 18.8086 19.2563 23.4824C19.3307 23.618 19.3648 23.7702 19.3648 23.9249V34.4109C19.3648 34.4109 17.8169 31.3301 12.8918 28.6806C8.74985 26.4524 7.19552 24.1807 6.80594 23.5146C6.73211 23.3883 6.70026 23.2443 6.70026 23.098V12.7222Z" fill="#131F8D"/>
<path d="M9.18241 28.1548C9.51605 31.0766 17.1742 33.2061 19.2615 37.0744C19.3328 37.2066 19.3648 37.3548 19.3648 37.505V46.194C19.3648 46.194 18.1203 43.6316 14.1605 41.428C10.8821 39.6035 9.61999 37.744 9.28268 37.158C9.21188 37.035 9.18241 36.896 9.18241 36.7541V28.1548Z" fill="#131F8D"/>
<path d="M30 12C29.6735 14.5823 22.2046 16.4669 20.1235 19.8749C20.038 20.0149 20 20.1767 20 20.3407V28C20 28 21.2222 25.7273 25.1111 23.7727C28.2619 22.1891 29.5164 20.5757 29.879 20.0203C29.9639 19.8903 30 19.7374 30 19.5821V12Z" fill="#F8F8F8"/>
<path d="M10.9218 6.73926C11.1969 9.02832 17.4796 10.7 19.2506 13.716C19.33 13.8513 19.3648 14.0067 19.3648 14.1637V20.9491C19.3648 20.9491 18.3329 18.9307 15.0495 17.1948C12.4158 15.8025 11.3515 14.3841 11.0333 13.8773C10.9544 13.7515 10.9218 13.6056 10.9218 13.4571V6.73926Z" fill="#131F8D"/>
<path d="M15.1433 4.49561C15.2772 5.55102 18.257 6.32937 19.2322 7.68754C19.3282 7.82115 19.3648 7.98539 19.3648 8.14987V11.2266C19.3648 11.2266 18.8488 10.2705 17.2071 9.44823C16.0488 8.86807 15.4976 8.27839 15.2734 7.98145C15.1796 7.85717 15.1433 7.70352 15.1433 7.5478V4.49561Z" fill="#131F8D"/>
<path d="M23 11C22.9047 11.9424 20.7801 12.637 20.0907 13.8514C20.0242 13.9686 20 14.1036 20 14.2383V17C20 17 20.3667 16.1477 21.5333 15.4148C22.3621 14.8941 22.7536 14.3648 22.9108 14.1019C22.9761 13.9927 23 13.8665 23 13.7392V11Z" fill="#F8F8F8"/>
</g>
<defs>
<filter id="filter0_d" x="0.700256" y="0" width="52.2868" height="58" filterUnits="userSpaceOnUse" color-interpolation-filters="sRGB">
<feFlood flood-opacity="0" result="BackgroundImageFix"/>
<feColorMatrix in="SourceAlpha" type="matrix" values="0 0 0 0 0 0 0 0 0 0 0 0 0 0 0 0 0 0 127 0"/>
<feOffset dy="4"/>
<feGaussianBlur stdDeviation="3"/>
<feColorMatrix type="matrix" values="0 0 0 0 0 0 0 0 0 0 0 0 0 0 0 0 0 0 0.11 0"/>
<feBlend mode="normal" in2="BackgroundImageFix" result="effect1_dropShadow"/>
<feBlend mode="normal" in="SourceGraphic" in2="effect1_dropShadow" result="shape"/>
</filter>
</defs>
</svg>
