<svg width="17" height="46" viewBox="0 0 17 46" fill="none" xmlns="http://www.w3.org/2000/svg">
<path d="M1.90735e-06 13.9731C0.5311 19.0779 12.8143 22.7874 15.9946 29.5946C16.0531 29.7198 16.0808 29.8563 16.0808 29.9945V45.2414C16.0808 45.2414 14.1154 40.7999 7.86173 36.9802C2.39768 33.6428 0.480138 30.2375 0.0830231 29.4308C0.0253773 29.3137 1.90735e-06 29.1848 1.90735e-06 29.0543V13.9731Z" fill="#131F8D"/>
<path d="M6.65554 6.65576C6.96144 9.67997 13.9958 11.8825 15.8897 15.8934C15.9473 16.0153 15.9733 16.1488 15.9733 16.2836V25.2912C15.9733 25.2912 14.8344 22.6441 11.2109 20.3676C8.17483 18.4603 7.02846 16.5157 6.73653 15.9353C6.67937 15.8216 6.65554 15.6964 6.65554 15.5691V6.65576Z" fill="#131F8D"/>
<path d="M9.31775 0C9.53398 1.92394 14.4569 3.33059 15.8703 5.85854C15.9425 5.98774 15.9733 6.13482 15.9733 6.28285V11.9799C15.9733 11.9799 15.1598 10.2782 12.5716 8.81478C10.5296 7.66022 9.68437 6.48447 9.41852 6.03958C9.34675 5.91947 9.31775 5.78153 9.31775 5.64162V0Z" fill="#131F8D"/>
</svg>
