<svg width="21" height="21" viewBox="0 0 21 21" fill="none" xmlns="http://www.w3.org/2000/svg">
<path d="M16.333 16.5C16.9076 16.5 17.4587 16.7283 17.8651 17.1346C18.2714 17.5409 18.4997 18.092 18.4997 18.6667C18.4997 19.2413 18.2714 19.7924 17.8651 20.1987C17.4587 20.6051 16.9076 20.8333 16.333 20.8333C15.7584 20.8333 15.2073 20.6051 14.8009 20.1987C14.3946 19.7924 14.1663 19.2413 14.1663 18.6667C14.1663 18.092 14.3946 17.5409 14.8009 17.1346C15.2073 16.7283 15.7584 16.5 16.333 16.5ZM16.333 17.5833C16.0457 17.5833 15.7701 17.6975 15.567 17.9006C15.3638 18.1038 15.2497 18.3794 15.2497 18.6667C15.2497 18.954 15.3638 19.2295 15.567 19.4327C15.7701 19.6359 16.0457 19.75 16.333 19.75C16.6203 19.75 16.8959 19.6359 17.099 19.4327C17.3022 19.2295 17.4163 18.954 17.4163 18.6667C17.4163 18.3794 17.3022 18.1038 17.099 17.9006C16.8959 17.6975 16.6203 17.5833 16.333 17.5833ZM6.58301 16.5C7.15764 16.5 7.70874 16.7283 8.11507 17.1346C8.5214 17.5409 8.74967 18.092 8.74967 18.6667C8.74967 19.2413 8.5214 19.7924 8.11507 20.1987C7.70874 20.6051 7.15764 20.8333 6.58301 20.8333C6.00837 20.8333 5.45727 20.6051 5.05094 20.1987C4.64461 19.7924 4.41634 19.2413 4.41634 18.6667C4.41634 18.092 4.64461 17.5409 5.05094 17.1346C5.45727 16.7283 6.00837 16.5 6.58301 16.5ZM6.58301 17.5833C6.29569 17.5833 6.02014 17.6975 5.81697 17.9006C5.61381 18.1038 5.49967 18.3794 5.49967 18.6667C5.49967 18.954 5.61381 19.2295 5.81697 19.4327C6.02014 19.6359 6.29569 19.75 6.58301 19.75C6.87032 19.75 7.14587 19.6359 7.34904 19.4327C7.5522 19.2295 7.66634 18.954 7.66634 18.6667C7.66634 18.3794 7.5522 18.1038 7.34904 17.9006C7.14587 17.6975 6.87032 17.5833 6.58301 17.5833ZM18.4997 3.5H3.62876L6.38801 10H15.2497C15.4181 10.0003 15.5843 9.96099 15.7348 9.88535C15.8853 9.80972 16.016 9.69982 16.1163 9.5645L19.3663 5.23117H19.3674C19.4876 5.07014 19.5606 4.87887 19.5783 4.67874C19.596 4.4786 19.5576 4.27749 19.4676 4.09788C19.3776 3.91827 19.2394 3.76723 19.0684 3.66165C18.8975 3.55607 18.7006 3.5001 18.4997 3.5ZM15.2497 11.0833H6.43784L5.60801 12.7733L5.49967 13.25C5.49967 13.5373 5.61381 13.8129 5.81697 14.016C6.02014 14.2192 6.29569 14.3333 6.58301 14.3333H18.4997V15.4167H6.58301C6.20575 15.4169 5.83499 15.3185 5.5074 15.1314C5.17981 14.9443 4.90675 14.6749 4.71524 14.3499C4.52372 14.0249 4.42039 13.6555 4.41547 13.2783C4.41055 12.9011 4.50421 12.5291 4.68717 12.1992L5.46717 10.6023L1.53251 1.33333H0.0830078V0.25H2.24967L3.16942 2.41667H18.4997C18.909 2.41671 19.31 2.53272 19.6562 2.75126C20.0023 2.9698 20.2795 3.28194 20.4555 3.65151C20.6316 4.02108 20.6993 4.43297 20.6509 4.83946C20.6025 5.24595 20.44 5.63042 20.1821 5.94833L17.0253 10.1582C16.8257 10.444 16.56 10.6773 16.2509 10.8384C15.9417 10.9995 15.5983 11.0835 15.2497 11.0833Z" fill="white"/>
</svg>
