<svg width="27" height="29" viewBox="0 0 27 29" fill="none" xmlns="http://www.w3.org/2000/svg">
<g filter="url(#filter0_d)">
<path d="M18.6667 16.5C19.1529 16.5 19.6192 16.6932 19.963 17.037C20.3069 17.3808 20.5 17.8471 20.5 18.3333C20.5 18.8196 20.3069 19.2859 19.963 19.6297C19.6192 19.9735 19.1529 20.1667 18.6667 20.1667C18.1805 20.1667 17.7141 19.9735 17.3703 19.6297C17.0265 19.2859 16.8334 18.8196 16.8334 18.3333C16.8334 17.8471 17.0265 17.3808 17.3703 17.037C17.7141 16.6932 18.1805 16.5 18.6667 16.5ZM18.6667 17.4167C18.4236 17.4167 18.1904 17.5132 18.0185 17.6852C17.8466 17.8571 17.75 18.0902 17.75 18.3333C17.75 18.5764 17.8466 18.8096 18.0185 18.9815C18.1904 19.1534 18.4236 19.25 18.6667 19.25C18.9098 19.25 19.143 19.1534 19.3149 18.9815C19.4868 18.8096 19.5834 18.5764 19.5834 18.3333C19.5834 18.0902 19.4868 17.8571 19.3149 17.6852C19.143 17.5132 18.9098 17.4167 18.6667 17.4167ZM10.4167 16.5C10.9029 16.5 11.3692 16.6932 11.713 17.037C12.0569 17.3808 12.25 17.8471 12.25 18.3333C12.25 18.8196 12.0569 19.2859 11.713 19.6297C11.3692 19.9735 10.9029 20.1667 10.4167 20.1667C9.93046 20.1667 9.46414 19.9735 9.12032 19.6297C8.77651 19.2859 8.58335 18.8196 8.58335 18.3333C8.58335 17.8471 8.77651 17.3808 9.12032 17.037C9.46414 16.6932 9.93046 16.5 10.4167 16.5ZM10.4167 17.4167C10.1736 17.4167 9.94041 17.5132 9.76851 17.6852C9.5966 17.8571 9.50002 18.0902 9.50002 18.3333C9.50002 18.5764 9.5966 18.8096 9.76851 18.9815C9.94041 19.1534 10.1736 19.25 10.4167 19.25C10.6598 19.25 10.893 19.1534 11.0649 18.9815C11.2368 18.8096 11.3334 18.5764 11.3334 18.3333C11.3334 18.0902 11.2368 17.8571 11.0649 17.6852C10.893 17.5132 10.6598 17.4167 10.4167 17.4167ZM20.5 5.5H7.91694L10.2517 11H17.75C17.8926 11.0002 18.0332 10.967 18.1605 10.903C18.2879 10.839 18.3985 10.746 18.4834 10.6315L21.2334 6.96483H21.2343C21.3359 6.82858 21.3977 6.66673 21.4127 6.49739C21.4276 6.32805 21.3952 6.15788 21.319 6.0059C21.2429 5.85392 21.1259 5.72612 20.9813 5.63678C20.8367 5.54744 20.67 5.50008 20.5 5.5ZM17.75 11.9167H10.2939L9.59169 13.3467L9.50002 13.75C9.50002 13.9931 9.5966 14.2263 9.76851 14.3982C9.94041 14.5701 10.1736 14.6667 10.4167 14.6667H20.5V15.5833H10.4167C10.0975 15.5835 9.78375 15.5003 9.50656 15.342C9.22937 15.1837 8.99832 14.9557 8.83627 14.6807C8.67422 14.4057 8.58678 14.0931 8.58262 13.7739C8.57845 13.4547 8.6577 13.14 8.81252 12.8608L9.47252 11.5097L6.14319 3.66667H4.91669V2.75H6.75002L7.52827 4.58333H20.5C20.8464 4.58337 21.1857 4.68153 21.4786 4.86645C21.7715 5.05137 22.006 5.31548 22.155 5.6282C22.3039 5.94091 22.3613 6.28943 22.3203 6.63339C22.2794 6.97735 22.1418 7.30267 21.9236 7.57167L19.2524 11.1338C19.0836 11.3757 18.8588 11.5731 18.5972 11.7094C18.3356 11.8457 18.045 11.9168 17.75 11.9167Z" fill="#131F8D"/>
</g>
<defs>
<filter id="filter0_d" x="0" y="0" width="30" height="30" filterUnits="userSpaceOnUse" color-interpolation-filters="sRGB">
<feFlood flood-opacity="0" result="BackgroundImageFix"/>
<feColorMatrix in="SourceAlpha" type="matrix" values="0 0 0 0 0 0 0 0 0 0 0 0 0 0 0 0 0 0 127 0"/>
<feOffset dy="4"/>
<feGaussianBlur stdDeviation="2"/>
<feColorMatrix type="matrix" values="0 0 0 0 0 0 0 0 0 0 0 0 0 0 0 0 0 0 0.25 0"/>
<feBlend mode="normal" in2="BackgroundImageFix" result="effect1_dropShadow"/>
<feBlend mode="normal" in="SourceGraphic" in2="effect1_dropShadow" result="shape"/>
</filter>
</defs>
</svg>
