<svg width="13" height="14" viewBox="0 0 13 14" fill="none" xmlns="http://www.w3.org/2000/svg">
<g clip-path="url(#clip0)">
<path fill-rule="evenodd" clip-rule="evenodd" d="M2.84375 0.617798C2.95149 0.617798 3.05483 0.661774 3.13101 0.740053C3.2072 0.818332 3.25 0.924501 3.25 1.0352V1.45261C3.25 1.56331 3.2072 1.66948 3.13101 1.74776C3.05483 1.82604 2.95149 1.87001 2.84375 1.87001C2.73601 1.87001 2.63267 1.82604 2.55649 1.74776C2.4803 1.66948 2.4375 1.56331 2.4375 1.45261V1.0352C2.4375 0.924501 2.4803 0.818332 2.55649 0.740053C2.63267 0.661774 2.73601 0.617798 2.84375 0.617798V0.617798ZM10.1563 0.617798C10.264 0.617798 10.3673 0.661774 10.4435 0.740053C10.5197 0.818332 10.5625 0.924501 10.5625 1.0352V1.45261C10.5625 1.56331 10.5197 1.66948 10.4435 1.74776C10.3673 1.82604 10.264 1.87001 10.1563 1.87001C10.0485 1.87001 9.94518 1.82604 9.86899 1.74776C9.7928 1.66948 9.75 1.56331 9.75 1.45261V1.0352C9.75 0.924501 9.7928 0.818332 9.86899 0.740053C9.94518 0.661774 10.0485 0.617798 10.1563 0.617798V0.617798Z" fill="white"/>
<path d="M1.625 1.45264C1.19402 1.45264 0.780698 1.62854 0.475951 1.94166C0.171205 2.25477 0 2.67945 0 3.12226L0 3.95707H13V3.12226C13 2.67945 12.8288 2.25477 12.524 1.94166C12.2193 1.62854 11.806 1.45264 11.375 1.45264H1.625ZM13 4.79188H0V12.3052C0 12.748 0.171205 13.1727 0.475951 13.4858C0.780698 13.7989 1.19402 13.9748 1.625 13.9748H11.375C11.806 13.9748 12.2193 13.7989 12.524 13.4858C12.8288 13.1727 13 12.748 13 12.3052V4.79188Z" fill="white"/>
</g>
<defs>
<clipPath id="clip0">
<rect width="13" height="13.357" fill="white" transform="translate(0 0.617798)"/>
</clipPath>
</defs>
</svg>
