<svg width="59" height="37" viewBox="0 0 59 37" fill="none" xmlns="http://www.w3.org/2000/svg">
<g clip-path="url(#clip0)">
<path d="M11.6803 21.5016H14.442V20.3354C14.389 20.3354 14.4057 20.5117 14.4057 18.6177H0V23.6967H8.93633L11.6803 21.5016Z" fill="#C4C4C4"/>
<path d="M22.9119 27.7178C22.9119 26.8837 22.9133 24.3938 22.9133 23.5593C21.731 23.5593 13.4241 23.5593 12.4019 23.5593L9.65799 25.7545H0V33.4348H1.23615C1.26427 30.5934 3.59662 28.2213 6.51686 28.2213C8.6736 28.2213 10.5319 29.5198 11.3517 31.3768H12.2942C13.1058 26.387 19.1877 24.2693 22.9119 27.7178Z" fill="#C4C4C4"/>
<path d="M35.058 32.3126L35.0504 30.2547L29.4974 30.2759V6.06408H27.4394V15.0505C26.9441 15.0505 23.4317 15.0505 22.9119 15.0505V1.74512H16.5V21.5015C26.1864 21.5015 17.5781 21.4987 27.4394 21.4987V32.3414L35.058 32.3126ZM22.9119 19.4408C22.9119 16.8439 22.8956 17.1084 22.9483 17.1084H27.4394V19.4408C26.9441 19.4408 23.4317 19.4408 22.9119 19.4408Z" fill="#C4C4C4"/>
<path d="M18.8984 28.0956C15.3743 27.8337 13.0099 31.787 14.9505 34.7339C16.4098 37.009 19.5553 37.4226 21.5442 35.5585C24.3032 32.9776 22.625 28.3362 18.8984 28.0956Z" fill="#C4C4C4"/>
<path d="M9.02905 31.4851C7.69055 29.8136 5.15563 29.9101 3.93423 31.5763C2.28204 33.7319 3.92799 36.7281 6.51697 36.7281C8.33243 36.7281 9.84784 35.1843 9.73767 33.3681C9.71819 32.7266 9.47219 32.0297 9.02905 31.4851Z" fill="#C4C4C4"/>
<path d="M14.4059 9.87244L9.19238 5.57886V16.5601H14.4059C14.4059 14.9843 14.4059 11.3151 14.4059 9.87244Z" fill="#C4C4C4"/>
<path d="M7.13437 5.0354H0.00012207V16.56H7.13437C7.13437 14.4901 7.13437 7.91709 7.13437 5.0354Z" fill="#C4C4C4"/>
</g>
<rect x="30.7826" width="28.2174" height="28.2174" rx="5" fill="#C4C4C4"/>
<defs>
<clipPath id="clip0">
<rect width="35.058" height="35.058" fill="white" transform="translate(0 1.71021)"/>
</clipPath>
</defs>
</svg>
