<svg width="25" height="25" viewBox="0 0 25 25" fill="none" xmlns="http://www.w3.org/2000/svg">
<path d="M5.20833 5.20833H18.75C19.5788 5.20833 20.3737 5.53757 20.9597 6.12362C21.5458 6.70967 21.875 7.50453 21.875 8.33333V17.7083C21.875 18.5371 21.5458 19.332 20.9597 19.918C20.3737 20.5041 19.5788 20.8333 18.75 20.8333H5.20833C4.37953 20.8333 3.58467 20.5041 2.99862 19.918C2.41257 19.332 2.08333 18.5371 2.08333 17.7083V8.33333C2.08333 7.50453 2.41257 6.70967 2.99862 6.12362C3.58467 5.53757 4.37953 5.20833 5.20833 5.20833ZM5.20833 6.25C4.69999 6.25 4.23333 6.43229 3.87187 6.73542L11.9792 12L20.0865 6.73542C19.712 6.42126 19.2387 6.24936 18.75 6.25H5.20833ZM11.9792 13.2417L3.26458 7.58333C3.17217 7.82258 3.12484 8.07686 3.12499 8.33333V17.7083C3.12499 18.2609 3.34449 18.7908 3.73519 19.1815C4.12589 19.5722 4.65579 19.7917 5.20833 19.7917H18.75C19.3025 19.7917 19.8324 19.5722 20.2231 19.1815C20.6138 18.7908 20.8333 18.2609 20.8333 17.7083V8.33333C20.8333 8.06875 20.7844 7.81562 20.6937 7.58333L11.9792 13.2406V13.2417Z" fill="white"/>
</svg>
