<svg width="43" height="43" viewBox="0 0 43 43" fill="none" xmlns="http://www.w3.org/2000/svg">
<g clip-path="url(#clip0)">
<path d="M42.4303 20.73L37.6051 17.0667C37.1687 16.7355 36.5844 16.6793 36.0933 16.924C35.6038 17.1666 35.2937 17.6668 35.2937 18.2142V20.4557H33.8663V18.1903C33.8663 17.3946 33.2213 16.7495 32.4259 16.7495H29.5582V11.3997C29.5582 10.6038 28.913 9.95882 28.1176 9.95882H23.637V8.42972H24.8432C25.6388 8.42972 26.2839 7.78457 26.2839 6.98901C26.2839 6.19345 25.6388 5.54858 24.8432 5.54858H15.5364C14.741 5.54858 14.0959 6.19345 14.0959 6.98901C14.0959 7.78457 14.741 8.42972 15.5364 8.42972H16.7435V9.95882H11.1742C10.3787 9.95882 9.73353 10.6038 9.73353 11.3997V14.2117H6.92009C6.12439 14.2117 5.47938 14.8567 5.47938 15.6522V18.9477H2.88099V14.8603C2.88099 14.0647 2.23598 13.4197 1.44042 13.4197C0.644864 13.4196 0 14.0647 0 14.8602V29.9283C0 30.7239 0.644864 31.3688 1.44057 31.3688C2.23613 31.3688 2.88114 30.7238 2.88114 29.9283V25.8408H5.47967V29.2191C5.47967 30.0148 6.12468 30.6597 6.92038 30.6597H10.5431L15.6255 36.9189C15.8991 37.2557 16.31 37.4512 16.7437 37.4512H32.4262C33.2218 37.4512 33.8666 36.8059 33.8666 36.0105V34.1071H35.294V36.0105C35.294 36.5732 35.6214 37.0839 36.1323 37.3194C36.325 37.4078 36.5305 37.4511 36.7344 37.4511C37.072 37.4511 37.4054 37.3323 37.6722 37.1041L42.4975 32.9685C42.8168 32.6945 43.0003 32.2951 43.0003 31.8744V21.8771C43 21.4272 42.789 21.0023 42.4303 20.73Z" fill="#C4C4C4"/>
</g>
<defs>
<clipPath id="clip0">
<rect width="43" height="43" fill="white"/>
</clipPath>
</defs>
</svg>
