<svg width="28" height="28" viewBox="0 0 28 28" fill="none" xmlns="http://www.w3.org/2000/svg">
<circle cx="13.7751" cy="13.775" r="13.775" fill="#EBECF0"/>
<path d="M19.9746 9.51966C19.9746 8.48832 19.0646 7.57831 18.0332 7.57831H10.2072C9.17581 7.57831 8.26581 8.48832 8.26581 9.51966V17.3457C8.26581 18.3771 9.17581 19.2871 10.2072 19.2871H14.1505V14.8584H12.6945V12.917H14.1505V12.1283C14.1505 10.7937 15.1212 9.64099 16.3345 9.64099H17.9119V11.5823H16.3345C16.1525 11.5823 15.9705 11.7643 15.9705 12.1283V12.917H17.9119V14.8584H15.9705V19.2871H18.0332C19.0646 19.2871 19.9746 18.3771 19.9746 17.3457V9.51966Z" fill="#131F8D"/>
</svg>
