<svg width="28" height="28" viewBox="0 0 28 28" fill="none" xmlns="http://www.w3.org/2000/svg">
<circle cx="13.7751" cy="13.8531" r="13.775" fill="url(#paint0_linear)"/>
<path d="M13 12.2558C11.9965 12.2558 11.1775 13.0747 11.1775 14.0782C11.1775 15.0817 11.9965 15.9007 13 15.9007C14.0035 15.9007 14.8225 15.0817 14.8225 14.0782C14.8225 13.0747 14.0035 12.2558 13 12.2558ZM18.466 14.0782C18.466 13.3235 18.4729 12.5757 18.4305 11.8224C18.3881 10.9474 18.1885 10.1708 17.5486 9.53095C16.9074 8.88974 16.1322 8.6915 15.2572 8.64911C14.5025 8.60673 13.7547 8.61357 13.0014 8.61357C12.2467 8.61357 11.4988 8.60673 10.7455 8.64911C9.87051 8.6915 9.09395 8.89111 8.45411 9.53095C7.81289 10.1722 7.61465 10.9474 7.57227 11.8224C7.52989 12.577 7.53672 13.3249 7.53672 14.0782C7.53672 14.8315 7.52989 15.5808 7.57227 16.3341C7.61465 17.2091 7.81426 17.9856 8.45411 18.6255C9.09532 19.2667 9.87051 19.4649 10.7455 19.5073C11.5002 19.5497 12.2481 19.5429 13.0014 19.5429C13.7561 19.5429 14.5039 19.5497 15.2572 19.5073C16.1322 19.4649 16.9088 19.2653 17.5486 18.6255C18.1898 17.9843 18.3881 17.2091 18.4305 16.3341C18.4742 15.5808 18.466 14.8329 18.466 14.0782ZM13 16.8823C11.4482 16.8823 10.1959 15.63 10.1959 14.0782C10.1959 12.5265 11.4482 11.2741 13 11.2741C14.5518 11.2741 15.8041 12.5265 15.8041 14.0782C15.8041 15.63 14.5518 16.8823 13 16.8823ZM15.919 11.8142C15.5566 11.8142 15.2641 11.5216 15.2641 11.1593C15.2641 10.797 15.5566 10.5044 15.919 10.5044C16.2813 10.5044 16.5738 10.797 16.5738 11.1593C16.5739 11.2453 16.5571 11.3305 16.5242 11.41C16.4913 11.4895 16.4431 11.5618 16.3823 11.6226C16.3214 11.6834 16.2492 11.7317 16.1697 11.7645C16.0902 11.7974 16.005 11.8143 15.919 11.8142Z" fill="#131F8D"/>
<defs>
<linearGradient id="paint0_linear" x1="5.85444" y1="24.5287" x2="24.1063" y2="5.58807" gradientUnits="userSpaceOnUse">
<stop stop-color="#EBECF0"/>
</linearGradient>
</defs>
</svg>
