<svg width="137" height="46" viewBox="0 0 137 46" fill="none" xmlns="http://www.w3.org/2000/svg">
<path d="M47.75 7.46261H52.5946C54.5821 7.46261 56.197 7.95584 57.4392 8.94229C58.6814 9.92874 59.3025 11.2726 59.3025 12.9739C59.3025 14.6751 58.6814 16.019 57.4392 17.0054C56.197 17.9919 54.5821 18.4851 52.5946 18.4851H49.4599V22.4738H47.75V7.46261ZM49.4599 16.9197H52.7042C54.1364 16.9197 55.3201 16.5908 56.2554 15.9332C57.2054 15.2756 57.6803 14.2891 57.6803 12.9739C57.6803 11.6729 57.2054 10.6936 56.2554 10.036C55.3201 9.36403 54.1364 9.02806 52.7042 9.02806H49.4599V16.9197Z" fill="white"/>
<path d="M65.2312 14.1104H72.7501V15.6759H65.2312V20.9083H73.2324V22.4738H63.5213V7.46261H73.2324V9.02806H65.2312V14.1104Z" fill="white"/>
<path d="M87.1591 22.4738H77.6014V7.46261H79.3113V20.9083H87.1591V22.4738Z" fill="white"/>
<path d="M93.0275 14.1104H100.546V15.6759H93.0275V20.9083H101.029V22.4738H91.3176V7.46261H101.029V9.02806H93.0275V14.1104Z" fill="white"/>
<path d="M116.797 22.4738H115.854L106.888 10.7436V22.4738H105.179V7.46261H106.143L115.087 19.1928V7.46261H116.797V22.4738Z" fill="white"/>
<path d="M129.036 7.3125C131.345 7.3125 133.274 8.14884 134.823 9.82151L133.705 10.8294C132.448 9.52844 130.892 8.87795 129.036 8.87795C127.326 8.87795 125.879 9.4641 124.696 10.6364C123.526 11.7944 122.942 13.2383 122.942 14.9682C122.942 16.6981 123.526 18.1491 124.696 19.3215C125.879 20.4795 127.326 21.0585 129.036 21.0585C130.629 21.0585 131.988 20.5509 133.113 19.5359V15.9118H128.904V14.6036H134.823V20.1578C133.289 21.8019 131.36 22.6239 129.036 22.6239C126.873 22.6239 125.032 21.8805 123.512 20.3937C121.992 18.8926 121.232 17.0841 121.232 14.9682C121.232 12.8523 121.992 11.051 123.512 9.56418C125.032 8.06306 126.873 7.3125 129.036 7.3125Z" fill="white"/>
<path d="M101.524 26.0868H104.906C106.32 26.0868 107.424 26.4561 108.217 27.1945C109.01 27.933 109.407 28.8537 109.407 29.9568C109.407 31.0598 109.01 31.9805 108.217 32.719C107.424 33.4574 106.32 33.8267 104.906 33.8267H103.96V35.9019H101.524V26.0868ZM103.96 31.5692H105.093C105.656 31.5692 106.129 31.4337 106.512 31.1626C106.903 30.8915 107.099 30.4896 107.099 29.9568C107.099 29.4426 106.903 29.0454 106.512 28.7649C106.12 28.4752 105.647 28.3303 105.093 28.3303H103.96V31.5692Z" fill="white"/>
<path d="M114.454 26.0868H117.98C119.375 26.0868 120.45 26.4514 121.205 27.1805C121.96 27.9096 122.337 28.8117 122.337 29.8867C122.337 30.569 122.165 31.1766 121.821 31.7094C121.487 32.2329 121.004 32.6395 120.374 32.9293C120.689 33.1723 121.162 33.7612 121.793 34.696L122.581 35.9019H119.843L119.284 35.0606C118.988 34.6212 118.783 34.3314 118.668 34.1912C118.563 34.051 118.42 33.9342 118.238 33.8407C118.057 33.7472 117.808 33.6958 117.493 33.6865H116.891V35.9019H114.454V26.0868ZM116.891 28.3303V31.429H118.21C118.764 31.429 119.203 31.3028 119.528 31.0504C119.863 30.7887 120.03 30.4008 120.03 29.8867C120.03 29.3912 119.858 29.008 119.514 28.7369C119.179 28.4658 118.745 28.3303 118.21 28.3303H116.891Z" fill="white"/>
<path d="M128.271 27.4609C129.265 26.4794 130.469 25.9887 131.883 25.9887C133.297 25.9887 134.501 26.4794 135.495 27.4609C136.498 28.4331 137 29.6109 137 30.9943C137 32.3778 136.498 33.5603 135.495 34.5418C134.501 35.5139 133.297 36 131.883 36C130.469 36 129.265 35.5139 128.271 34.5418C127.277 33.5603 126.78 32.3778 126.78 30.9943C126.78 29.6109 127.277 28.4331 128.271 27.4609ZM133.789 29.0033C133.283 28.4892 132.648 28.2321 131.883 28.2321C131.119 28.2321 130.483 28.4892 129.977 29.0033C129.47 29.5081 129.217 30.1718 129.217 30.9943C129.217 31.8263 129.47 32.4946 129.977 32.9994C130.483 33.4948 131.119 33.7425 131.883 33.7425C132.657 33.7425 133.297 33.4948 133.804 32.9994C134.31 32.4946 134.563 31.8263 134.563 30.9943C134.563 30.1718 134.305 29.5081 133.789 29.0033Z" fill="white"/>
<g filter="url(#filter0_d)">
<path d="M18.2529 4.61607C22.1968 4.61607 25.9792 6.09947 28.7679 8.73994C31.5567 11.3804 33.1234 14.9617 33.1234 18.6959C33.1234 22.43 31.5567 26.0113 28.7679 28.6518C25.9792 31.2922 22.1968 32.7756 18.2528 32.7756L18.2529 18.6959L18.2529 4.61607Z" fill="white"/>
<rect x="16.3707" y="2" width="6.91683" height="33.6333" rx="1" fill="white"/>
<rect width="6.39753" height="14.5662" rx="1" transform="matrix(0.681385 0.731926 -0.767267 0.641328 29.6686 4.14697)" fill="white"/>
<rect x="36.3528" y="14.2703" width="6.31562" height="19.0581" rx="1" transform="rotate(90 36.3528 14.2703)" fill="white"/>
<rect width="6.35392" height="15.4477" rx="1" transform="matrix(-0.646871 0.762599 -0.794644 -0.607076 35.062 27.2053)" fill="white"/>
<path d="M16.9314 3.39258C19.0235 3.39258 21.0951 3.73203 23.028 4.39157C24.9609 5.0511 26.7172 6.01779 28.1965 7.23645C29.6759 8.4551 30.8494 9.90186 31.65 11.4941C32.4506 13.0864 32.8627 14.7929 32.8627 16.5164C32.8627 18.2398 32.4506 19.9464 31.65 21.5386C30.8494 23.1309 29.6759 24.5776 28.1965 25.7963C26.7172 27.0149 24.9609 27.9816 23.028 28.6412C21.0951 29.3007 19.0235 29.6401 16.9313 29.6401L16.9314 16.5164V3.39258Z" fill="white"/>
<path d="M28.6099 13.2112C28.2345 16.1299 19.6308 18.2583 17.2654 22.1178C17.1785 22.2597 17.1393 22.4234 17.1393 22.5898V31.2564C17.1393 31.2564 18.5412 28.6931 23.002 26.4888C26.6634 24.6794 28.0923 22.8355 28.4869 22.2327C28.5732 22.1009 28.6099 21.9466 28.6099 21.7891V13.2112Z" fill="#121C78"/>
<path d="M6.81191 10.5012C7.1241 13.0614 14.2675 14.9295 16.2544 18.3092C16.335 18.4462 16.3707 18.6032 16.3707 18.7622V26.3591C16.3707 26.3591 15.2024 24.1066 11.4851 22.1694C8.46856 20.5974 7.27044 18.9957 6.92592 18.4477C6.84586 18.3204 6.81191 18.1719 6.81191 18.0215V10.5012Z" fill="white"/>
<path d="M8.68536 21.7849C8.93545 23.9065 14.6381 25.4568 16.2597 28.2485C16.3372 28.3819 16.3707 28.5349 16.3707 28.6893V34.9745C16.3707 34.9745 15.4314 33.1009 12.4427 31.4897C10.064 30.2074 9.09168 28.9014 8.7938 28.4216C8.7168 28.2976 8.68536 28.1542 8.68536 28.0082V21.7849Z" fill="white"/>
<path d="M24.7863 7.93604C24.5385 9.86366 18.9071 11.2742 17.2687 13.8019C17.1782 13.9415 17.1393 14.1066 17.1393 14.273V19.9662C17.1393 19.9662 18.0739 18.2573 21.0478 16.7878C23.366 15.6422 24.3417 14.4758 24.6593 14.0172C24.749 13.8877 24.7863 13.7323 24.7863 13.5747V7.93604Z" fill="#121C78"/>
<path d="M9.99819 6.12646C10.204 7.78499 14.8624 9.00026 16.2474 11.1679C16.3343 11.3039 16.3707 11.4646 16.3707 11.626V16.5161C16.3707 16.5161 15.5919 15.0403 13.1137 13.7711C11.2165 12.7995 10.3982 11.8106 10.1188 11.4003C10.0328 11.274 9.99819 11.1238 9.99819 10.9711V6.12646Z" fill="white"/>
<path d="M13.1845 4.48608C13.2836 5.24271 15.4477 5.80459 16.2259 6.76229C16.3325 6.89345 16.3707 7.06339 16.3707 7.23238V9.4075C16.3707 9.4075 15.9813 8.70844 14.7422 8.10724C13.9349 7.71557 13.5184 7.31797 13.326 7.0884C13.2233 6.9657 13.1845 6.80733 13.1845 6.64726V4.48608Z" fill="white"/>
<path d="M19.6883 7.27637C19.6093 7.94624 17.8915 8.44438 17.2627 9.28948C17.1705 9.41331 17.1393 9.56884 17.1393 9.72319V11.651C17.1393 11.651 17.4508 11.0296 18.4421 10.4952C19.0779 10.1524 19.4108 9.80453 19.5678 9.59912C19.6564 9.48312 19.6883 9.33831 19.6883 9.19233V7.27637Z" fill="#121C78"/>
</g>
<defs>
<filter id="filter0_d" x="0.81189" y="0" width="41.5409" height="45.6333" filterUnits="userSpaceOnUse" color-interpolation-filters="sRGB">
<feFlood flood-opacity="0" result="BackgroundImageFix"/>
<feColorMatrix in="SourceAlpha" type="matrix" values="0 0 0 0 0 0 0 0 0 0 0 0 0 0 0 0 0 0 127 0"/>
<feOffset dy="4"/>
<feGaussianBlur stdDeviation="3"/>
<feColorMatrix type="matrix" values="0 0 0 0 0 0 0 0 0 0 0 0 0 0 0 0 0 0 0.11 0"/>
<feBlend mode="normal" in2="BackgroundImageFix" result="effect1_dropShadow"/>
<feBlend mode="normal" in="SourceGraphic" in2="effect1_dropShadow" result="shape"/>
</filter>
</defs>
</svg>
