<svg width="25" height="25" viewBox="0 0 25 25" fill="none" xmlns="http://www.w3.org/2000/svg">
<path d="M1.1341 10.9247H3.23125C3.35528 11.372 3.53396 11.8023 3.76373 12.2056L2.27939 13.6893C2.20851 13.7602 2.16864 13.8563 2.16864 13.9567C2.16864 14.0572 2.20851 14.1533 2.27939 14.2242L3.88304 15.8283C4.03071 15.9756 4.26993 15.9756 4.41759 15.8283L5.90208 14.3436C6.30535 14.5733 6.73521 14.7521 7.18248 14.876V16.9731C7.18248 17.1819 7.35171 17.3511 7.56051 17.3511H9.82865C10.0375 17.3511 10.2067 17.1819 10.2067 16.9731V14.876C10.654 14.7521 11.0838 14.5733 11.4871 14.3436L12.9716 15.8283C13.1216 15.97 13.3562 15.97 13.5061 15.8283L15.1101 14.2242C15.1809 14.1533 15.2208 14.0572 15.2208 13.9567C15.2208 13.8563 15.1809 13.7602 15.1101 13.6893L13.6254 12.2056C13.8552 11.8023 14.0339 11.372 14.1579 10.9247H16.2551C16.4639 10.9247 16.6331 10.7555 16.6331 10.5467V8.27856C16.6331 8.06991 16.4639 7.90053 16.2551 7.90053H14.1579C14.0339 7.4534 13.8552 7.0231 13.6254 6.61983L15.1098 5.13608C15.1806 5.0652 15.2205 4.96907 15.2205 4.86866C15.2205 4.76825 15.1806 4.67212 15.1098 4.60124L13.5061 2.99715C13.3585 2.84963 13.1192 2.84963 12.9716 2.99715L11.4871 4.48178C11.0838 4.2523 10.6538 4.07348 10.2067 3.94944V1.85215C10.2067 1.64349 10.0375 1.47412 9.82865 1.47412H7.56051C7.35171 1.47412 7.18248 1.64349 7.18248 1.85215V3.94944C6.73535 4.07348 6.30535 4.2523 5.90208 4.48178L4.41759 2.99715C4.26756 2.85539 4.03292 2.85539 3.88304 2.99715L2.2791 4.60124C2.20822 4.67212 2.16835 4.76825 2.16835 4.86866C2.16835 4.96907 2.20822 5.0652 2.2791 5.13608L3.76373 6.61983C3.53396 7.0231 3.35528 7.4534 3.23125 7.90053H1.1341C0.925298 7.90053 0.756073 8.06991 0.756073 8.27856V10.5467C0.756073 10.7555 0.925298 10.9247 1.1341 10.9247ZM1.51212 8.65658H3.52702C3.70466 8.65658 3.85838 8.53298 3.89633 8.35948C4.02037 7.79333 4.24468 7.25376 4.55861 6.76646C4.65445 6.61702 4.63318 6.42077 4.50752 6.29511L3.08092 4.86851L4.15032 3.79897L5.57662 5.22557C5.70228 5.35153 5.89868 5.37279 6.04841 5.27681C6.53586 4.96302 7.07528 4.73871 7.64143 4.61453C7.81479 4.57643 7.93853 4.42271 7.93853 4.24507V2.23017H9.45063V4.24507C9.45063 4.42271 9.57437 4.57643 9.74773 4.61453C10.3139 4.73871 10.8533 4.96302 11.3408 5.27681C11.4905 5.37279 11.6869 5.35153 11.8125 5.22557L13.2388 3.79897L14.3079 4.86851L12.8816 6.29467C12.7557 6.42048 12.7346 6.61687 12.8306 6.76646C13.1445 7.25405 13.3685 7.79348 13.4924 8.35977C13.5305 8.53328 13.6842 8.65702 13.8617 8.65702H15.877V10.1691H13.8617C13.6842 10.1691 13.5305 10.2927 13.4924 10.4662C13.3685 11.0324 13.1443 11.5718 12.8306 12.0588C12.7347 12.2084 12.756 12.4046 12.8816 12.5303L14.3082 13.9566L13.2388 15.0264L11.8125 13.5997C11.6869 13.4739 11.4905 13.4526 11.3408 13.5486C10.8536 13.8625 10.3143 14.0868 9.74818 14.2109C9.57452 14.2487 9.45063 14.4025 9.45063 14.5802V16.5951H7.93853V14.5802C7.93853 14.4025 7.81464 14.2487 7.64099 14.2109C7.07484 14.0868 6.53556 13.8625 6.04841 13.5486C5.89868 13.4526 5.70228 13.4739 5.57662 13.5997L4.15032 15.0264L3.08122 13.9569L4.50752 12.5306C4.63348 12.4049 4.6546 12.2085 4.55861 12.0588C4.24468 11.5714 4.02037 11.0318 3.89633 10.4655C3.85823 10.292 3.70466 10.1687 3.52702 10.1687H1.51212V8.65658Z" fill="#BDBDBD"/>
<path d="M8.69454 12.4371C10.3648 12.4371 11.7187 11.0833 11.7187 9.41287C11.7187 7.74262 10.3648 6.38867 8.69454 6.38867C7.0243 6.38867 5.67035 7.74262 5.67035 9.41287C5.67212 11.0822 7.02518 12.4353 8.69454 12.4371ZM8.69454 7.14472C9.94705 7.14472 10.9627 8.16037 10.9627 9.41287C10.9627 10.6655 9.94705 11.681 8.69454 11.681C7.44204 11.681 6.4264 10.6655 6.4264 9.41287C6.42773 8.16066 7.44234 7.14605 8.69454 7.14472Z" fill="#BDBDBD"/>
<path d="M8.69452 13.5709C10.991 13.5709 12.8528 11.7093 12.8528 9.41266C12.8528 7.11616 10.991 5.25439 8.69452 5.25439C6.39802 5.25439 4.53625 7.11616 4.53625 9.41266C4.53906 11.7081 6.39906 13.5683 8.69452 13.5709ZM8.69452 6.01044C10.5736 6.01044 12.0967 7.53361 12.0967 9.41266C12.0967 11.2917 10.5736 12.8149 8.69452 12.8149C6.81547 12.8149 5.2923 11.2917 5.2923 9.41266C5.29437 7.53465 6.81636 6.01251 8.69452 6.01044Z" fill="#BDBDBD"/>
<path d="M22.3034 18.8635V15.8393C22.3034 15.6307 22.1342 15.4613 21.9254 15.4613H21.1694V12.4371C21.1694 12.2285 21.0002 12.0591 20.7914 12.0591H17.3891C17.1803 12.0591 17.0111 12.2285 17.0111 12.4371V15.4613H15.121C14.9122 15.4613 14.743 15.6307 14.743 15.8393V18.8635H2.64619C1.60279 18.8648 0.757402 19.7102 0.756073 20.7536V21.5097C0.757402 22.5532 1.60279 23.3986 2.64619 23.3998H22.3034C23.3469 23.3986 24.1922 22.5532 24.1936 21.5097V20.7536C24.1922 19.7102 23.3469 18.8648 22.3034 18.8635ZM21.5474 18.8635H18.9012V16.2173H21.5474V18.8635ZM17.7672 12.8151H20.4133V15.4613H17.7672V12.8151ZM15.499 16.2173H18.1452V18.8635H15.499V16.2173ZM23.4375 21.5097C23.4375 22.1361 22.9297 22.6437 22.3034 22.6437H2.64619C2.01994 22.6437 1.51212 22.1361 1.51212 21.5097V20.7536C1.51212 20.1274 2.01994 19.6196 2.64619 19.6196H22.3034C22.9297 19.6196 23.4375 20.1274 23.4375 20.7536V21.5097Z" fill="#BDBDBD"/>
<path d="M12.4748 19.9976C11.8486 19.9976 11.3407 20.5054 11.3407 21.1316C11.3407 21.758 11.8486 22.2657 12.4748 22.2657C13.1011 22.2657 13.6089 21.758 13.6089 21.1316C13.6089 20.5054 13.1011 19.9976 12.4748 19.9976ZM12.4748 21.5097C12.266 21.5097 12.0968 21.3404 12.0968 21.1316C12.0968 20.923 12.266 20.7536 12.4748 20.7536C12.6836 20.7536 12.8528 20.923 12.8528 21.1316C12.8528 21.3404 12.6836 21.5097 12.4748 21.5097Z" fill="#BDBDBD"/>
<path d="M8.69456 19.9976C8.06831 19.9976 7.56049 20.5054 7.56049 21.1316C7.56049 21.758 8.06831 22.2657 8.69456 22.2657C9.3208 22.2657 9.82863 21.758 9.82863 21.1316C9.82863 20.5054 9.3208 19.9976 8.69456 19.9976ZM8.69456 21.5097C8.48576 21.5097 8.31653 21.3404 8.31653 21.1316C8.31653 20.923 8.48576 20.7536 8.69456 20.7536C8.90335 20.7536 9.07258 20.923 9.07258 21.1316C9.07258 21.3404 8.90335 21.5097 8.69456 21.5097Z" fill="#BDBDBD"/>
<path d="M16.2551 19.9976C15.6288 19.9976 15.121 20.5054 15.121 21.1316C15.121 21.758 15.6288 22.2657 16.2551 22.2657C16.8813 22.2657 17.3891 21.758 17.3891 21.1316C17.3891 20.5054 16.8813 19.9976 16.2551 19.9976ZM16.2551 21.5097C16.0463 21.5097 15.877 21.3404 15.877 21.1316C15.877 20.923 16.0463 20.7536 16.2551 20.7536C16.4639 20.7536 16.6331 20.923 16.6331 21.1316C16.6331 21.3404 16.4639 21.5097 16.2551 21.5097Z" fill="#BDBDBD"/>
<path d="M4.91431 19.9976C4.28806 19.9976 3.78024 20.5054 3.78024 21.1316C3.78024 21.758 4.28806 22.2657 4.91431 22.2657C5.54056 22.2657 6.04839 21.758 6.04839 21.1316C6.04839 20.5054 5.54056 19.9976 4.91431 19.9976ZM4.91431 21.5097C4.70552 21.5097 4.53629 21.3404 4.53629 21.1316C4.53629 20.923 4.70552 20.7536 4.91431 20.7536C5.12311 20.7536 5.29234 20.923 5.29234 21.1316C5.29234 21.3404 5.12311 21.5097 4.91431 21.5097Z" fill="#BDBDBD"/>
<path d="M20.0353 19.9976C19.409 19.9976 18.9012 20.5054 18.9012 21.1316C18.9012 21.758 19.409 22.2657 20.0353 22.2657C20.6615 22.2657 21.1694 21.758 21.1694 21.1316C21.1694 20.5054 20.6615 19.9976 20.0353 19.9976ZM20.0353 21.5097C19.8265 21.5097 19.6573 21.3404 19.6573 21.1316C19.6573 20.923 19.8265 20.7536 20.0353 20.7536C20.2441 20.7536 20.4133 20.923 20.4133 21.1316C20.4133 21.3404 20.2441 21.5097 20.0353 21.5097Z" fill="#BDBDBD"/>
</svg>
