<svg width="25" height="25" viewBox="0 0 25 25" fill="none" xmlns="http://www.w3.org/2000/svg">
<path d="M20.3125 22.9167C21.1739 22.9167 21.875 22.2156 21.875 21.3542V17.7083C21.875 16.8469 21.1739 16.1458 20.3125 16.1458C19.0937 16.1458 17.8958 15.9542 16.75 15.576C16.4761 15.4896 16.1839 15.479 15.9045 15.5456C15.6251 15.6122 15.369 15.7534 15.1635 15.9542L13.6635 17.4542C11.0709 16.0467 8.94169 13.9182 7.53333 11.326L9.02083 9.82917C9.44999 9.43125 9.60416 8.82604 9.42083 8.24375C9.04347 7.09614 8.85216 5.89555 8.85416 4.6875C8.85416 3.82604 8.15312 3.125 7.29166 3.125H3.64583C2.78437 3.125 2.08333 3.82604 2.08333 4.6875C2.08333 14.7396 10.2604 22.9167 20.3125 22.9167ZM3.64583 4.16667H7.29166C7.42979 4.16667 7.56227 4.22154 7.65995 4.31922C7.75762 4.41689 7.81249 4.54937 7.81249 4.6875C7.81249 6.01771 8.02083 7.32396 8.4302 8.5625C8.46028 8.65238 8.4638 8.74902 8.44033 8.84085C8.41687 8.93267 8.36742 9.01578 8.29791 9.08021L6.26041 11.1281C7.96562 14.4906 10.4844 17.0094 13.8625 18.7292L15.8927 16.6979C15.962 16.6294 16.0486 16.5809 16.1433 16.5578C16.2379 16.5347 16.3371 16.5378 16.4302 16.5667C17.676 16.9792 18.9823 17.1875 20.3125 17.1875C20.5989 17.1875 20.8333 17.4219 20.8333 17.7083V21.3542C20.8333 21.6406 20.5989 21.875 20.3125 21.875C10.8354 21.875 3.12499 14.1646 3.12499 4.6875C3.12499 4.54937 3.17987 4.41689 3.27754 4.31922C3.37522 4.22154 3.50769 4.16667 3.64583 4.16667Z" fill="white"/>
</svg>
