<svg width="23" height="23" viewBox="0 0 23 23" fill="none" xmlns="http://www.w3.org/2000/svg">
<path d="M18.6875 21.0833C19.48 21.0833 20.125 20.4384 20.125 19.6458V16.2917C20.125 15.4991 19.48 14.8542 18.6875 14.8542C17.5663 14.8542 16.4642 14.6778 15.41 14.33C15.158 14.2504 14.8892 14.2407 14.6321 14.302C14.3751 14.3633 14.1395 14.4932 13.9505 14.6778L12.5705 16.0578C10.1853 14.7629 8.22637 12.8047 6.93067 10.42L8.29917 9.04283C8.694 8.67675 8.83584 8.11996 8.66717 7.58425C8.32 6.52845 8.144 5.42391 8.14584 4.3125C8.14584 3.51996 7.50088 2.875 6.70834 2.875H3.35417C2.56163 2.875 1.91667 3.51996 1.91667 4.3125C1.91667 13.5604 9.43959 21.0833 18.6875 21.0833ZM3.35417 3.83333H6.70834C6.83542 3.83333 6.9573 3.88382 7.04716 3.97368C7.13702 4.06354 7.1875 4.18542 7.1875 4.3125C7.1875 5.53629 7.37917 6.73804 7.7558 7.8775C7.78347 7.96019 7.7867 8.0491 7.76512 8.13358C7.74353 8.21806 7.69803 8.29452 7.63409 8.35379L5.75959 10.2379C7.32838 13.3314 9.64563 15.6486 12.7535 17.2308L14.6213 15.3621C14.685 15.299 14.7647 15.2545 14.8518 15.2332C14.9389 15.2119 15.0302 15.2147 15.1158 15.2413C16.262 15.6208 17.4637 15.8125 18.6875 15.8125C18.951 15.8125 19.1667 16.0281 19.1667 16.2917V19.6458C19.1667 19.9094 18.951 20.125 18.6875 20.125C9.96859 20.125 2.875 13.0314 2.875 4.3125C2.875 4.18542 2.92549 4.06354 3.01535 3.97368C3.10521 3.88382 3.22709 3.83333 3.35417 3.83333Z" fill="#131F8D"/>
</svg>
