<svg width="64" height="59" viewBox="0 0 64 59" fill="none" xmlns="http://www.w3.org/2000/svg">
<path d="M59 29.4692C59 28.7868 58.6672 28.187 58.1607 27.8108L58.1714 27.7923L51.0377 23.6421L55.144 16.4751L55.1302 16.4666C55.2599 16.1712 55.3187 15.8492 55.3018 15.5266C55.2849 15.2041 55.1928 14.8901 55.033 14.6101C54.872 14.3303 54.6478 14.0928 54.3786 13.9168C54.1094 13.7408 53.8028 13.6312 53.4837 13.597V13.577H45.2452V5.29894H45.2284C45.1941 4.97779 45.0852 4.66929 44.9106 4.39845C44.7359 4.1276 44.5004 3.90203 44.2231 3.74002C43.9448 3.57848 43.6325 3.48555 43.3118 3.4688C42.9911 3.45205 42.671 3.51196 42.3777 3.64365L42.3677 3.62592L35.1139 7.84626L31.0972 0.83497L31.0826 0.843452C30.8935 0.582652 30.6461 0.370392 30.3605 0.223858C30.0748 0.0773235 29.759 0.000634771 29.4384 0C28.7613 0 28.1653 0.335376 27.7927 0.845764L27.7744 0.83497L23.6911 7.96191L16.6599 3.87109L16.6515 3.88574C16.3583 3.75504 16.0388 3.69579 15.7187 3.7128C15.3986 3.72981 15.087 3.82261 14.8091 3.98365C14.5314 4.14575 14.2955 4.37163 14.1206 4.64292C13.9458 4.9142 13.837 5.22324 13.803 5.54489H13.7824V13.7743H5.66323V13.7905C5.34453 13.8251 5.03839 13.9348 4.76962 14.1108C4.50084 14.2868 4.277 14.5241 4.11622 14.8036C3.95634 15.0839 3.86428 15.3982 3.84753 15.721C3.83078 16.0438 3.88981 16.3661 4.01982 16.6616L4.00222 16.6724L8.01589 23.6783L0.828624 27.8601L0.837039 27.8748C0.578232 28.0653 0.367593 28.3146 0.222178 28.6025C0.0767636 28.8903 0.000659838 29.2086 2.99156e-05 29.5316C2.99156e-05 30.2139 0.332845 30.8145 0.839335 31.19L0.828624 31.2085L7.96233 35.3587L3.85609 42.5257L3.86986 42.5334C3.74016 42.8288 3.68137 43.1508 3.69825 43.4734C3.71513 43.7959 3.80721 44.1099 3.96703 44.3899C4.12803 44.6697 4.35223 44.9072 4.62143 45.0832C4.89063 45.2592 5.19723 45.3688 5.51634 45.403V45.4238H13.7541V53.7011H13.7709C13.8413 54.3302 14.1909 54.9192 14.7762 55.26C15.0546 55.4213 15.3668 55.5142 15.6875 55.5309C16.0082 55.5477 16.3282 55.4879 16.6216 55.3563L16.6316 55.3741L23.8854 51.1537L27.9021 58.165L27.9167 58.1565C28.1058 58.4173 28.3532 58.6296 28.6388 58.7761C28.9244 58.9227 29.2403 58.9994 29.5609 59C30.238 59 30.834 58.6646 31.2066 58.155L31.2242 58.165L35.3075 51.0381L42.3394 55.1289L42.3478 55.1143C42.6409 55.245 42.9605 55.3042 43.2806 55.2872C43.6007 55.2702 43.9123 55.1774 44.1902 55.0163C44.468 54.8543 44.704 54.6285 44.8788 54.3572C45.0536 54.0859 45.1624 53.7768 45.1963 53.4551H45.2169V45.2264H53.3368V45.2103C53.6555 45.1757 53.9617 45.066 54.2304 44.89C54.4992 44.714 54.7231 44.4766 54.8838 44.1972C55.0437 43.9169 55.1358 43.6026 55.1525 43.2798C55.1693 42.9569 55.1103 42.6347 54.9802 42.3391L54.9978 42.3291L50.9842 35.3232L58.1714 31.1414L58.163 31.1268C58.4218 30.9361 58.6325 30.6866 58.7779 30.3986C58.9233 30.1107 58.9994 29.7923 59 29.4692Z" fill="#DD2025"/>
<path d="M15.0005 40.9684L15.191 42.0904L13.3906 43.1299L12.2651 34.8885L13.2368 34.3275L19.7732 39.4449L17.9727 40.4844L17.0963 39.7584L15.0005 40.9684ZM14.4149 37.5341L14.677 39.1101L15.6487 38.5491L14.4149 37.5341ZM24.9976 36.4286L22.3678 35.0636C22.1645 34.9609 21.9987 34.9084 21.8705 34.9062C21.7385 34.8977 21.59 34.9411 21.4249 35.0365L21.0629 35.2455L22.5589 37.8366L20.9394 38.7716L17.0894 32.1032L18.7089 31.1682L20.1609 33.6832L20.5133 33.4797C20.6785 33.3843 20.7922 33.2806 20.8544 33.1684C20.913 33.0499 20.9486 32.8769 20.9613 32.6495L21.0904 29.7932L22.91 28.7427L22.7605 32.2458C22.7105 32.6726 22.6144 33.0414 22.4721 33.3522C22.784 33.3499 23.1657 33.4683 23.617 33.7073L26.8267 35.3726L24.9976 36.4286ZM34.8787 32.3623L33.2592 33.2973L32.5497 32.0684L28.0819 34.6479L24.2319 27.9795L25.8514 27.0445L28.8159 32.1792L30.8354 31.0132L27.8709 25.8785L29.4904 24.9435L32.4549 30.0782L33.2837 29.5997L34.8787 32.3623ZM40.7664 27.3245L39.147 28.2595L37.0295 24.5919L36.3843 29.8545L35.4127 30.4155L31.5627 23.7471L33.1821 22.8121L35.2996 26.4797L35.9447 21.2171L36.9164 20.6561L40.7664 27.3245ZM47.4266 23.4792L45.8072 24.4142L44.9382 22.9091L44.5381 23.1401C44.2496 23.3151 44.0744 23.4882 44.0124 23.6595C43.9504 23.8308 43.9052 24.1998 43.8768 24.7666L43.8448 25.5472L42.0252 26.5977L42.0762 25.4759C42.1169 24.6226 42.2003 24.041 42.3263 23.7311C41.7935 23.7763 41.3101 23.687 40.8761 23.4633C40.4448 23.2297 40.0953 22.881 39.8277 22.4174C39.406 21.6871 39.303 20.9294 39.5188 20.1444C39.7345 19.3593 40.3059 18.6991 41.2332 18.1638L43.5766 16.8108L47.4266 23.4792ZM42.8372 19.27L41.9607 19.776C41.6051 19.9813 41.3661 20.2421 41.2438 20.5583C41.1279 20.8708 41.1671 21.1953 41.3614 21.5319C41.5631 21.8812 41.8232 22.0825 42.1418 22.1356C42.4631 22.1787 42.8079 22.094 43.1762 21.8813L44.0527 21.3753L42.8372 19.27Z" fill="white"/>
</svg>
