<svg width="15" height="15" viewBox="0 0 15 15" fill="none" xmlns="http://www.w3.org/2000/svg">
<g clip-path="url(#clip0)">
<path fill-rule="evenodd" clip-rule="evenodd" d="M6.25701 10.3601C6.19841 10.4187 6.11892 10.4516 6.03604 10.4516C5.95316 10.4516 5.87368 10.4187 5.81507 10.3601L3.60536 8.15038C3.54676 8.09177 3.51383 8.01229 3.51383 7.9294C3.51383 7.84652 3.54676 7.76704 3.60536 7.70843L5.81507 5.49873C5.87368 5.44012 5.95316 5.4072 6.03604 5.4072C6.11892 5.4072 6.19841 5.44012 6.25701 5.49873C6.31562 5.55733 6.34854 5.63682 6.34854 5.7197C6.34854 5.80258 6.31562 5.88206 6.25701 5.94067L4.26828 7.92941L6.25701 9.91814C6.31562 9.97675 6.34854 10.0562 6.34854 10.1391C6.34854 10.222 6.31562 10.3015 6.25701 10.3601Z" fill="#131F8D"/>
<path fill-rule="evenodd" clip-rule="evenodd" d="M3.51356 7.92903C3.51351 7.88792 3.52157 7.84721 3.53728 7.80923C3.55298 7.77124 3.57603 7.73673 3.60509 7.70766C3.63416 7.6786 3.66867 7.65555 3.70666 7.63985C3.74464 7.62414 3.78535 7.61608 3.82646 7.61613L11.7814 7.61614C11.8644 7.61614 11.944 7.6491 12.0027 7.70778C12.0613 7.76646 12.0943 7.84605 12.0943 7.92903C12.0943 8.01202 12.0613 8.0916 12.0027 8.15028C11.944 8.20896 11.8644 8.24193 11.7814 8.24193L3.82646 8.24192C3.78535 8.24198 3.74464 8.23392 3.70666 8.21821C3.66867 8.20251 3.63416 8.17946 3.60509 8.1504C3.57603 8.12133 3.55298 8.08682 3.53728 8.04883C3.52157 8.01084 3.51351 7.97013 3.51356 7.92903Z" fill="#131F8D"/>
</g>
<defs>
<clipPath id="clip0">
<rect width="10" height="10" fill="white" transform="translate(7.36194 15) rotate(-135)"/>
</clipPath>
</defs>
</svg>
