<svg width="15" height="15" viewBox="0 0 15 15" fill="none" xmlns="http://www.w3.org/2000/svg">
<g clip-path="url(#clip0)">
<path fill-rule="evenodd" clip-rule="evenodd" d="M8.46665 4.6404C8.52526 4.5818 8.60474 4.54888 8.68762 4.54888C8.7705 4.54888 8.84999 4.5818 8.90859 4.6404L11.1183 6.85011C11.1769 6.90872 11.2098 6.9882 11.2098 7.07108C11.2098 7.15396 11.1769 7.23345 11.1183 7.29205L8.90859 9.50176C8.84999 9.56037 8.7705 9.59329 8.68762 9.59329C8.60474 9.59329 8.52526 9.56037 8.46665 9.50176C8.40805 9.44316 8.37512 9.36367 8.37512 9.28079C8.37512 9.19791 8.40805 9.11843 8.46665 9.05982L10.4554 7.07108L8.46665 5.08235C8.40805 5.02374 8.37512 4.94426 8.37512 4.86138C8.37512 4.7785 8.40805 4.69901 8.46665 4.6404Z" fill="#131F8D"/>
<path fill-rule="evenodd" clip-rule="evenodd" d="M11.2104 7.07097C11.2104 7.11208 11.2024 7.15279 11.1867 7.19077C11.171 7.22876 11.1479 7.26327 11.1189 7.29234C11.0898 7.3214 11.0553 7.34445 11.0173 7.36015C10.9793 7.37586 10.9386 7.38392 10.8975 7.38387L2.94254 7.38387C2.85956 7.38387 2.77997 7.3509 2.72129 7.29222C2.66261 7.23354 2.62965 7.15396 2.62965 7.07097C2.62965 6.98799 2.66261 6.9084 2.72129 6.84972C2.77997 6.79104 2.85956 6.75808 2.94254 6.75808L10.8975 6.75808C10.9386 6.75802 10.9793 6.76608 11.0173 6.78179C11.0553 6.79749 11.0898 6.82054 11.1189 6.8496C11.1479 6.87867 11.171 6.91318 11.1867 6.95117C11.2024 6.98916 11.2104 7.02987 11.2104 7.07097Z" fill="#131F8D"/>
</g>
<defs>
<clipPath id="clip0">
<rect width="10" height="10" fill="white" transform="translate(7.36194) rotate(45)"/>
</clipPath>
</defs>
</svg>
