<svg width="10" height="14" viewBox="0 0 10 14" fill="none" xmlns="http://www.w3.org/2000/svg">
<path d="M9.13282 4.06445C8.96856 5.65442 5.2415 6.8184 4.14906 8.90099C4.08527 9.02262 4.05902 9.15953 4.05902 9.29687V14C4.05902 14 4.67915 12.5887 6.6523 11.3749C8.18076 10.4348 8.82968 9.47764 9.04454 9.09399C9.10791 8.98084 9.13282 8.8526 9.13282 8.72291V4.06445Z" fill="#131F8D"/>
<path d="M-1.66893e-05 2.03247C0.130376 3.28746 3.0672 4.20881 3.96638 5.84151C4.03298 5.96242 4.05902 6.10026 4.05902 6.2383V9.93571C4.05902 9.93571 3.56292 8.81309 1.9844 7.84764C0.806852 7.12742 0.281854 6.39471 0.09112 6.06895C0.0252533 5.95645 -1.66893e-05 5.82721 -1.66893e-05 5.69685V2.03247Z" fill="#131F8D"/>
<path d="M7.66705 0.338745C7.55159 1.46397 4.96032 2.29118 4.15049 3.75026C4.08425 3.86962 4.05902 4.00604 4.05902 4.14255V7.45166C4.05902 7.45166 4.5 6.4413 5.90313 5.5724C6.9321 4.93519 7.40052 4.28711 7.57717 3.9868C7.64252 3.87569 7.66705 3.7481 7.66705 3.6192V0.338745Z" fill="#131F8D"/>
<path d="M1.804 0C1.87431 0.678612 3.41324 1.18213 3.96053 2.04281C4.03442 2.159 4.05902 2.29771 4.05902 2.4354V4.40323C4.05902 4.40323 3.78341 3.77777 2.90645 3.23988C2.33005 2.88633 2.03508 2.52738 1.90061 2.32287C1.82917 2.21422 1.804 2.0847 1.804 1.95467V0Z" fill="#131F8D"/>
</svg>
