<svg width="28" height="28" viewBox="0 0 28 28" fill="none" xmlns="http://www.w3.org/2000/svg">
<circle cx="13.7751" cy="13.8531" r="13.775" fill="#EBECF0"/>
<path d="M20.5296 17.3789C20.5296 17.3217 20.4724 17.3217 20.4724 17.2645C20.2436 16.8071 19.729 16.2353 19.0428 15.6063C18.6997 15.3203 18.5282 15.0916 18.4138 14.9772C18.2423 14.7485 18.2423 14.577 18.2995 14.3482C18.3566 14.1767 18.5854 13.8908 18.9856 13.3761C19.2144 13.0902 19.3287 12.9187 19.5003 12.7471C20.358 11.6035 20.7583 10.8601 20.6439 10.517L20.5867 10.4599C20.5296 10.4027 20.4724 10.3455 20.358 10.3455C20.2436 10.2883 20.0721 10.2883 19.9005 10.3455H17.7276C17.6704 10.3455 17.6704 10.3455 17.5561 10.3455C17.4989 10.3455 17.4417 10.3455 17.4417 10.3455H17.3845H17.3273L17.2702 10.4027C17.213 10.4599 17.213 10.4599 17.213 10.517C16.9843 11.146 16.6983 11.6607 16.4124 12.2325C16.2409 12.5184 16.0693 12.8043 15.8978 13.0331C15.7263 13.2618 15.6119 13.4333 15.4975 13.5477C15.3832 13.6621 15.2688 13.7192 15.2116 13.8336C15.1544 13.8908 15.0401 13.948 15.0401 13.8908C14.9829 13.8908 14.9257 13.8908 14.9257 13.8336C14.8685 13.7764 14.8113 13.7192 14.7542 13.6621C14.697 13.6049 14.697 13.4905 14.6398 13.3761C14.6398 13.2618 14.6398 13.1474 14.6398 13.0902C14.6398 13.0331 14.6398 12.8615 14.6398 12.7471C14.6398 12.5756 14.6398 12.4612 14.6398 12.4041C14.6398 12.2325 14.6398 12.0038 14.6398 11.7751C14.6398 11.5463 14.6398 11.3748 14.6398 11.2604C14.6398 11.146 14.6398 10.9745 14.6398 10.8601C14.6398 10.6886 14.6398 10.5742 14.6398 10.517C14.6398 10.4599 14.5826 10.3455 14.5826 10.2883C14.5254 10.2311 14.4682 10.174 14.4111 10.1168C14.3539 10.0596 14.2395 10.0596 14.1823 10.0024C13.8964 9.94522 13.5533 9.88804 13.1531 9.88804C12.2381 9.88804 11.6091 9.94523 11.3804 10.0596C11.266 10.1168 11.1517 10.174 11.0945 10.2883C10.9801 10.4027 10.9801 10.4599 11.0373 10.4599C11.3232 10.517 11.552 10.6314 11.6663 10.803L11.7235 10.9173C11.7807 10.9745 11.7807 11.0889 11.8379 11.2604C11.895 11.432 11.895 11.6035 11.895 11.8322C11.895 12.1753 11.895 12.5184 11.895 12.7471C11.895 13.0331 11.8379 13.2046 11.8379 13.3761C11.8379 13.5477 11.7807 13.6621 11.7235 13.7192C11.6663 13.8336 11.6663 13.8908 11.6091 13.8908C11.6091 13.8908 11.6091 13.948 11.552 13.948C11.4948 13.948 11.4376 14.0052 11.3232 14.0052C11.266 14.0052 11.1517 13.948 11.0945 13.8908C10.9801 13.8336 10.8658 13.7192 10.8086 13.6049C10.6942 13.4905 10.5799 13.319 10.4655 13.0902C10.3511 12.8615 10.1796 12.6328 10.0652 12.2897L9.95086 12.061C9.89368 11.9466 9.77931 11.7179 9.66495 11.432C9.55058 11.146 9.43622 10.9173 9.32185 10.6314C9.26467 10.517 9.2075 10.4599 9.15031 10.4027H9.09313C9.09313 10.4027 9.03594 10.3455 8.97876 10.3455C8.92157 10.3455 8.8644 10.2883 8.80722 10.2883H6.74866C6.51993 10.2883 6.40557 10.3455 6.34838 10.4027L6.2912 10.4599C6.2912 10.4599 6.2912 10.517 6.2912 10.5742C6.2912 10.6314 6.2912 10.6886 6.34838 10.803C6.63429 11.4891 6.97739 12.1753 7.32048 12.8615C7.66357 13.4905 8.00667 14.0623 8.2354 14.4626C8.52131 14.8629 8.75003 15.2632 9.03594 15.6063C9.32185 15.9493 9.4934 16.1781 9.55058 16.2924C9.66494 16.4068 9.72212 16.464 9.7793 16.5212L9.95086 16.6927C10.0652 16.8071 10.2368 16.9786 10.4655 17.1502C10.6942 17.3217 10.9801 17.4933 11.266 17.6648C11.552 17.8364 11.8951 17.9507 12.2381 18.0651C12.6384 18.1795 12.9815 18.2366 13.3246 18.1795H14.1823C14.3539 18.1795 14.4683 18.1223 14.5826 18.0079L14.6398 17.9507C14.6398 17.8935 14.697 17.8935 14.697 17.8364C14.697 17.7792 14.697 17.722 14.697 17.6076C14.697 17.3789 14.697 17.2074 14.7542 17.0358C14.8113 16.8643 14.8113 16.7499 14.8685 16.6355C14.9257 16.5212 14.9829 16.464 15.0401 16.4068C15.0972 16.3496 15.1544 16.2924 15.1544 16.2924H15.2116C15.326 16.2353 15.4975 16.2924 15.6119 16.4068C15.7834 16.5212 15.955 16.6927 16.0693 16.8643C16.1837 17.0358 16.3553 17.2074 16.584 17.4361C16.8127 17.6648 16.9843 17.8364 17.0986 17.8935L17.2702 18.0079C17.3845 18.0651 17.4989 18.1223 17.6704 18.1795C17.842 18.2366 17.9563 18.2366 18.0707 18.2366L20.0149 18.1795C20.1865 18.1795 20.358 18.1223 20.4724 18.0651C20.5867 18.0079 20.6439 17.9507 20.6439 17.8364C20.6439 17.7792 20.6439 17.6648 20.6439 17.6076C20.5295 17.4933 20.5296 17.4361 20.5296 17.3789Z" fill="#131F8D"/>
</svg>
