<svg width="28" height="28" viewBox="0 0 28 28" fill="none" xmlns="http://www.w3.org/2000/svg">
<circle cx="13.775" cy="13.8531" r="13.775" fill="#EBECF0"/>
<path d="M19.7763 13.1043C19.7763 12.8372 19.7318 12.5255 19.7318 12.1693C19.6873 11.8131 19.6428 11.4569 19.5982 11.1452C19.5092 10.789 19.3756 10.5219 19.1085 10.2992C18.8858 10.0766 18.5742 9.94304 18.2625 9.89851C17.2384 9.76494 15.7246 9.72041 13.6764 9.72041C11.6282 9.72041 10.0698 9.76494 9.09027 9.89851C8.7786 9.94304 8.46692 10.0766 8.2443 10.2992C8.02167 10.5219 7.84357 10.789 7.75451 11.1452C7.66546 11.4569 7.62094 11.7686 7.62094 12.1693C7.57642 12.5255 7.57642 12.8372 7.57642 13.1043C7.57642 13.3715 7.57642 13.6832 7.57642 14.1284C7.57642 14.5737 7.57642 14.9299 7.57642 15.1525C7.57642 15.4197 7.62094 15.7313 7.62094 16.0875C7.66547 16.4437 7.70999 16.7999 7.75451 17.1116C7.84357 17.4678 7.97714 17.735 8.2443 17.9576C8.46692 18.1802 8.7786 18.3138 9.09027 18.3583C10.1144 18.4919 11.6282 18.5364 13.6764 18.5364C15.7246 18.5364 17.2829 18.4919 18.2625 18.3583C18.5742 18.3138 18.8858 18.1802 19.1085 17.9576C19.3311 17.735 19.5092 17.4678 19.5982 17.1116C19.6873 16.7999 19.7318 16.4883 19.7318 16.0875C19.7764 15.7313 19.7763 15.4197 19.7763 15.1525C19.7763 14.8853 19.7763 14.5737 19.7763 14.1284C19.7763 13.6832 19.7763 13.327 19.7763 13.1043ZM16.0362 14.4846L12.5187 16.6664C12.4742 16.7109 12.3852 16.7554 12.2961 16.7554C12.2071 16.7554 12.1625 16.7554 12.0735 16.7109C11.9399 16.6218 11.8508 16.4883 11.8508 16.3102V11.9022C11.8508 11.724 11.9399 11.5905 12.0735 11.5014C12.2071 11.4124 12.3852 11.4124 12.5187 11.5014L16.0362 13.6832C16.1698 13.7722 16.2589 13.9058 16.2589 14.0394C16.2589 14.1729 16.1698 14.3956 16.0362 14.4846Z" fill="#131F8D"/>
</svg>
